<svg xmlns="http://www.w3.org/2000/svg" xml:space="preserve" width="682.667" height="682.667"><defs><clipPath id="a" clipPathUnits="userSpaceOnUse"><path d="M0 512h512V0H0Z"/></clipPath></defs><g clip-path="url(#a)" transform="matrix(1.33333 0 0 -1.33333 0 682.667)"><path d="M0 0v-42.913l.822-3.156C24.668-46.069 44-26.738 44-2.891v52.644C44 73.599 24.668 92.931.822 92.931c-12.898 0-24.476-5.656-32.388-14.622l.001-.003C-12.021 58.003 0 30.407 0 0" style="fill:#5993af;fill-opacity:1;fill-rule:nonzero;stroke:none" transform="translate(429.995 325.07)"/><path d="M0 0c-25.988 0-47.055 21.067-47.055 47.055V159.569c0 62.37-50.561 112.931-112.931 112.931a61.323 61.323 0 0 1-45.309-20h-101.656c-75.111 0-136-60.889-136-136 0-23.345 5.887-45.313 16.252-64.508 5.148-9.534 7.748-20.234 7.748-31.069V-81.75a9.75 9.75 0 0 1 9.75-9.75h44.5a9.75 9.75 0 0 1 9.75 9.75v70.974c14.927-5.633 31.101-8.724 48-8.724h63.141v-62.25a9.75 9.75 0 0 1 9.75-9.75h44.5a9.75 9.75 0 0 1 9.75 9.75v65.717A119.38 119.38 0 0 1-131.819 8.27l-.001.001C-116.702-26.882-81.762-51.5-41.069-51.5h39.542c14.623 0 26.478 11.854 26.478 26.478v.071C24.951-11.171 13.78 0 0 0" style="fill:#7caabf;fill-opacity:1;fill-rule:nonzero;stroke:none" transform="translate(477.05 165.5)"/><path d="M0 0v-.001a119.377 119.377 0 0 0-47.99-24.303v-65.717a9.75 9.75 0 0 0-9.75-9.75h47.99A9.75 9.75 0 0 1 0-90.021V0" style="fill:#5993af;fill-opacity:1;fill-rule:nonzero;stroke:none" transform="translate(345.23 173.77)"/><path d="M0 0c-16.899 0-33.074 3.091-48 8.724V-62.25A9.75 9.75 0 0 0-57.75-72h48A9.75 9.75 0 0 1 0-62.25z" style="fill:#5993af;fill-opacity:1;fill-rule:nonzero;stroke:none" transform="translate(170.098 146)"/><path d="M0 0v-60.583a9.75 9.75 0 0 0-9.75-9.75H-64" style="fill:none;stroke:#000;stroke-width:20;stroke-linecap:round;stroke-linejoin:round;stroke-miterlimit:10;stroke-dasharray:none;stroke-opacity:1" transform="translate(170.098 144.333)"/><path d="M0 0c-8.557-17.805-13.351-37.761-13.351-58.836v0c0-23.345 5.888-45.313 16.253-64.508 5.148-9.534 7.747-20.234 7.747-31.069v-102.673c0-5.385 4.366-9.75 9.75-9.75h44.5a9.75 9.75 0 0 1 9.75 9.75v62.25h111.142v-62.25a9.75 9.75 0 0 1 9.75-9.75h44.5c5.384 0 9.75 4.365 9.75 9.75v65.717a119.377 119.377 0 0 1 47.99 24.303" style="fill:none;stroke:#000;stroke-width:20;stroke-linecap:round;stroke-linejoin:round;stroke-miterlimit:10;stroke-dasharray:none;stroke-opacity:1" transform="translate(47.449 340.836)"/><path d="M0 0h-101.656c-21.632 0-42.084-5.05-60.242-14.036" style="fill:none;stroke:#000;stroke-width:20;stroke-linecap:round;stroke-linejoin:round;stroke-miterlimit:10;stroke-dasharray:none;stroke-opacity:1" transform="translate(271.754 418)"/><path d="M0 0v103.069C0 165.439-50.561 216-112.931 216v0a61.327 61.327 0 0 1-45.31-20v0" style="fill:none;stroke:#000;stroke-width:20;stroke-linecap:round;stroke-linejoin:round;stroke-miterlimit:10;stroke-dasharray:none;stroke-opacity:1" transform="translate(429.995 222)"/><path d="M0 0v0c0-54.536 44.211-98.747 98.747-98.747h39.614c14.623 0 26.477 11.854 26.477 26.478v0c0 13.819-11.203 25.022-25.022 25.022v0c-25.988 0-47.055 21.067-47.055 47.055v22.879" style="fill:none;stroke:#000;stroke-width:20;stroke-linecap:round;stroke-linejoin:round;stroke-miterlimit:10;stroke-dasharray:none;stroke-opacity:1" transform="translate(337.233 212.747)"/><path d="M0 0c-7.87 10.577-20.466 17.428-34.663 17.428v0c-23.847 0-43.178-19.331-43.178-43.178v-52.643c0-23.847 19.331-43.179 43.178-43.179v0c23.846 0 43.178 19.332 43.178 43.179" style="fill:none;stroke:#000;stroke-width:20;stroke-linecap:round;stroke-linejoin:round;stroke-miterlimit:10;stroke-dasharray:none;stroke-opacity:1" transform="translate(280.324 400.572)"/><path d="M0 0c7.912 8.967 19.489 14.622 32.388 14.622v0c23.846 0 43.178-19.331 43.178-43.178V-81.2c0-23.846-19.332-43.178-43.178-43.178v0" style="fill:none;stroke:#000;stroke-width:20;stroke-linecap:round;stroke-linejoin:round;stroke-miterlimit:10;stroke-dasharray:none;stroke-opacity:1" transform="translate(398.429 403.378)"/><path d="M0 0v0" style="fill:none;stroke:#000;stroke-width:20;stroke-linecap:round;stroke-linejoin:round;stroke-miterlimit:10;stroke-dasharray:none;stroke-opacity:1" transform="translate(350.874 330)"/><path d="M0 0c-30.879 0-56 25.122-56 56 0 11.046 8.954 20 20 20s20-8.954 20-20c0-8.822 7.178-16 16-16 11.046 0 20-8.954 20-20S11.046 0 0 0" style="fill:#fff3da;fill-opacity:1;fill-rule:nonzero;stroke:none" transform="translate(369.995 203)"/><path d="M0 0c-30.879 0-56 25.122-56 56 0 11.046 8.954 20 20 20s20-8.954 20-20c0-8.822 7.178-16 16-16 11.046 0 20-8.954 20-20S11.046 0 0 0Z" style="fill:none;stroke:#000;stroke-width:20;stroke-linecap:round;stroke-linejoin:round;stroke-miterlimit:10;stroke-dasharray:none;stroke-opacity:1" transform="translate(369.995 203)"/><path d="M0 0v0c-13.312 0-24.104-10.792-24.104-24.104V-126" style="fill:none;stroke:#000;stroke-width:20;stroke-linecap:round;stroke-linejoin:round;stroke-miterlimit:10;stroke-dasharray:none;stroke-opacity:1" transform="translate(34.098 282)"/><path d="M0 0v-81.75a9.75 9.75 0 0 0-9.75-9.75H-64" style="fill:none;stroke:#000;stroke-width:20;stroke-linecap:round;stroke-linejoin:round;stroke-miterlimit:10;stroke-dasharray:none;stroke-opacity:1" transform="translate(345.23 165.5)"/><path d="M0 0v0" style="fill:none;stroke:#000;stroke-width:20;stroke-linecap:round;stroke-linejoin:round;stroke-miterlimit:10;stroke-dasharray:none;stroke-opacity:1" transform="translate(73.385 377.612)"/></g></svg>