<svg clip-rule="evenodd" fill-rule="evenodd" height="512" image-rendering="optimizeQuality" shape-rendering="geometricPrecision" text-rendering="geometricPrecision" viewBox="0 0 1.70666 1.70666" width="512" xmlns="http://www.w3.org/2000/svg"><g id="Layer_x0020_1"><path d="m1.29717.55865c-.0364685 0-.0685315-.0189567-.0857953-.0507008-.0197323-.0362756-.0159134-.0820315.0102087-.122386.0391181-.0604921.084252-.0695197.107681-.0695197.0448386 0 .0839331.0306457.0972362.0762677.0124724.0427283.00187402.103665-.0653228.146535-.0203189.0129606-.0424567.0198031-.0640079.0198031zm-.591075 1.1479c-.00033465 0-.0006811 0-.00102756-.00001575-.117831-.00302756-.216772-.0604488-.271472-.157547-.100874-.179055-.039937-.266504.00901181-.336787.044937-.0644882.0804331-.115445.0148583-.245551-.038248-.0758543-.102248-.202819-.0542283-.34526.0497559-.147606.209776-.242996.407681-.242996.194276 0 .408665.1055.42022.337138.011122.221858-.0468307.653299-.249638.866488-.0785551.0826339-.171224.124531-.275406.124531zm.104839-1.24815c-.133567 0-.287976.0582953-.331886.188555-.0344843.10228.00391339.192571.0498543.283709.0870433.172713.0273307.258409-.0206457.327272-.0453543.0651063-.0811693.116516-.00494488.251799.0410669.0728937.113248.114354.203319.116827.0811969-.00014961.154189-.0336732.216961-.0996535.175681-.184701.238909-.583323.227689-.807374-.00901969-.180394-.177441-.261134-.340346-.261134zm-.34876-.0273858c-.070811 0-.153315-.051622-.177992-.166941-.0231378-.107803.0049685-.171209.032622-.205413.030063-.0372008.0755433-.0585472.124783-.0585472.0551496 0 .109472.0266457.145315.0712795.0434528.0541024.0573228.129469.0390315.212193-.0198071.089563-.0840906.147429-.16376.147429zm-.0205984-.350909c-.0253268 0-.0475472.010252-.0625709.0288425-.0235945.0292047-.0295.0783346-.016622.13837.0164016.0765433.0639882.103705.0997913.103705.0412835 0 .0740984-.0324488.0856654-.0846969.0165984-.0750709-.00350787-.120201-.0233031-.144839-.020815-.0259134-.0518228-.0413819-.0829606-.0413819zm.377898.274488c-.00001575 0-.00001575 0 0 0-.0560354 0-.121217-.0403307-.140496-.130398-.0177756-.0828504.0043189-.132201.0259724-.159004.0240118-.0297205.0602677-.0467441.0994961-.0467441.0434961 0 .0863071.0209567.1145.0560748.0338268.0421024.0447008.100346.0306339.163992-.015626.0705157-.0666969.116079-.130106.116079zm-.0150433-.256157c-.00877559 0-.0253031.00220866-.0372874.0170354-.0151339.0187323-.0186772.0513858-.00997244.0919606.010626.0495787.040189.0671732.0622874.0671732.0247874 0 .0447165-.0204449.0520079-.0533701.0111811-.0506181-.00193307-.0804843-.0148858-.0966378-.0131693-.0163701-.0326654-.0261614-.0521496-.0261614zm.293559.303154c-.036063 0-.0691024-.017-.0906378-.0466024-.0253465-.0348307-.0309567-.0823937-.0154134-.13048.023622-.0731969.0722835-.116902.13015-.116902.0472283 0 .0908465.0297441.111122.0757953.0242087.054937.00976378.119299-.0385906.172154-.0272087.0296929-.0615276.0460354-.0966299.0460354zm.0240787-.214c-.0214016 0-.0416063.0229803-.0540512.0615-.00758661.0234843-.00612598.0449252.00398425.0588268.014122.0194173.0418819.0173307.0635748-.00637008.0267047-.0291772.0355906-.0604921.0244016-.0859213-.00737008-.0167756-.0226063-.0280354-.0379094-.0280354zm.207209.208429c-.0120157 0-.0271614.0123346-.0405236.0329843-.00995669.0153898-.0126102.0306063-.00711417.0407283.00222047.00406693.00670866.00891732.0155276.00891732.00627559 0 .0135512-.00251181.021-.00726378.0253976-.0162087.0372008-.0373976.0315472-.0567008-.0026063-.00898425-.0101339-.0186654-.020437-.0186654z" fill="#006ea7"/><g fill="#59aae7"><path d="m1.15128.719535c-.00901969-.180394-.177441-.261134-.340346-.261134-.133567 0-.287976.0582953-.331886.188555-.0344843.10228.00391339.192571.0498543.283709.0870433.172713.0273307.258409-.0206457.327272-.0453543.0651063-.0811693.116516-.00494488.251799.0410669.0728937.113248.114354.203319.116827.0811969-.00014961.154189-.0336732.216961-.0996535.175681-.184701.238909-.583323.227689-.807374z"/><path d="m.757169.207433c.0180118.084.097437.0900315.114295.0138031.0111811-.0506181-.00193307-.0804843-.0148858-.0966378-.0131693-.0163701-.0326654-.0261614-.0521496-.0261614-.0488583 0-.0590827.0538661-.0472598.108996z"/><path d="m1.06802.249091c-.0206063.0637795.0285394.0950866.0675591.0524567.0561614-.0613622.0192756-.113957-.0135079-.113957-.0214016 0-.0416063.0229803-.0540512.0615z"/><path d="m1.32928.39602c-.0218661 0-.0611732.0488504-.0476378.0737126.0153583.0282087.0789685-.0176772.0680748-.0550472-.0026063-.00898425-.0101339-.0186654-.020437-.0186654z"/><path d="m.547839.266327c.0165984-.0750709-.00350787-.120201-.0233031-.144839-.020815-.0259134-.0518228-.0413819-.0829606-.0413819-.0253268 0-.0475472.010252-.0625709.0288425-.0235945.0292047-.0295.0783346-.016622.13837.0281614.131362.159043.138394.185457.0190079z"/></g></g></svg>