<svg id="Capa_1" enable-background="new 0 0 512 512" height="512" viewBox="0 0 512 512" width="512" xmlns="http://www.w3.org/2000/svg"><g><path d="m361.897 117.931c-55.638-28.386-137.573-17.828-190.589 24.555-48.699 38.933-52.432 109.389-49.661 173.176l.043 1.005c2.14 49.306 5.374 123.816 45.728 163.819 17.875 17.718 45.846 29.43 74.822 31.328 1.903.125 3.792.187 5.668.187 20.631 0 39.546-7.489 53.748-21.399 15.574-15.253 23.919-37.155 22.895-60.089-.319-7.151-1.573-14.35-3.832-22.005 0-.001 0-.001 0-.002-3.822-12.945-9.837-24.686-15.654-36.039-7.441-14.522-14.469-28.239-15.978-42.675-1.997-19.095 8.713-36.141 33.703-53.645 2.274-1.594 4.586-3.191 6.914-4.802 27.644-19.119 58.975-40.79 67.556-78.503 6.935-30.477-7.276-60.581-35.363-74.911z"/><circle cx="393" cy="57" r="55"/><circle cx="273" cy="40" r="40"/><circle cx="174" cy="62.5" r="37.5"/><circle cx="99" cy="125" r="35"/></g></svg>