<svg id="Layer_1" height="512" viewBox="0 0 66 66" width="512" xmlns="http://www.w3.org/2000/svg"><g><path d="m11.5 49.5c1.6.5 3.3.8 5.1 1.1-.7 5.7-1.9 12.8-3.1 12.7-1.4-.2-1.9-6.6-2-13.8z" fill="#c7d9f9"/><path d="m22.6 50.8c-.3 7-.9 13.2-2.2 13.2-1.4 0-2.2-7.4-2.6-13.3 1.7.1 3.3.2 4.8.1z" fill="#c7d9f9"/><path d="m47.3 20.7c0 .4 2.2 41.9-2 42.3-2.4.2-4.7-23.9-4.7-23.9s-.8 24.9-3.6 24.9c-2 0-2.6-11.8-2.8-22.8 1-.8 9.1-7.6 7.2-9.9-1.3-1.6-4.3.4-7.3 2.7 0-2.6 0-5 0-6.9 0-.2 0-.4 0-.5s0-.3 0-.4c0-.3 0-.5 0-.8 0-.9 0-1.6 0-2 0-.5 0-.7 0-.7-.1 0-.4 0-1 0h-.1c-.4 0-.9 0-1.4 0-1.8-.1-4.4-.2-7.1-.5-1.5-.2-2.8-.6-3.7-1.1-1-.7-2-2.2-2.9-4 1.1-.1 2.3-.2 3.7-.2.9 1.1 2.3 1.7 3.8 1.7s2.8-.6 3.7-1.6c3.9 0 7.8-.1 10.2-1 7.3-2.7 18.1-15.9 20.3-13.5 2.6 2.4-12.3 18.2-12.3 18.2z" fill="#fecb4d"/><circle cx="38.2" cy="7" fill="#c7d9f9" r="5"/><circle cx="25.7" cy="13.4" fill="#c7d9f9" r="5"/><path d="m34.4 22.6s0 1.8-.1 4.6c-1.5.2-3.1.4-4.5.6-.6-.5-1.4-.7-2.2-.7-2.1 0-3.7 1.7-3.7 3.7 0 .9.3 1.8.9 2.4 0 1.2.1 2.6.4 4-4.1-1.8-9.9-6.8-11.5-4.3-2 3.1 10 10.6 10 10.6s-.4 3.3-.5 7.3c-6.8.5-17.6-2.1-17.1-5.5 0 0 7.7-17.2 7.6-23.3 0-4.5-6-17.1-2.5-17.8 3.3-.6 6.1 14 10.1 16.7 2 1.3 6.8 1.5 11.1 1.6h.4.7c.2.1.5.1.9.1z" fill="#ff5892"/><path d="m28.4 52.8s1 11.2 3.2 11.2c3.3 0 2.6-22.7 2.6-22.7s9.3-7.6 7.3-10c-2.4-3-10.1 6.3-14 6.5-3.7.2-11.9-8.1-14-4.9-2 3 10 10.6 10 10.6s-2.2 20.5 2.1 20.5c2.8 0 2.8-11.2 2.8-11.2z" fill="#27d1ff"/><circle cx="27.6" cy="30.8" fill="#c7d9f9" r="3.7"/><g fill="none" stroke="#2a3c65" stroke-miterlimit="10" stroke-width="1.5"><path d="m16.3 53.5c-.7 4.9-1.7 9.8-2.7 9.7-1.3-.1-1.8-4.8-2-10.6" stroke-linecap="round" stroke-linejoin="round"/><path d="m21.1 63.4c-.2.4-.4.6-.7.6-1.1 0-1.9-5.2-2.3-10.3" stroke-linecap="round" stroke-linejoin="round"/><path d="m34.3 25.4v.8.4.5 3.2" stroke-linecap="round" stroke-linejoin="round"/><path d="m35.9 62.5c.3 1 .7 1.5 1.1 1.5 2.6 0 3.5-21.3 3.6-24.5 0-.3 0-.4 0-.4s0 .1 0 .4c.3 3 2.5 23.8 4.7 23.6 4.2-.4 2-41.9 2-42.3 0 0 14.9-15.8 12.5-18.4-2.2-2.5-13 10.8-20.3 13.5-1.7.6-4.1.9-6.7 1" stroke-linecap="round" stroke-linejoin="round"/><path d="m33.3 22.5c-.2 0-.4 0-.7 0z" stroke-linecap="round" stroke-linejoin="round"/><circle cx="38.2" cy="7" r="5"/><path d="m20 50.8c-6.5-.3-14.5-2.6-14.1-5.6 0 0 7.7-17.2 7.6-23.3 0-4.5-6-17.1-2.5-17.8 3.3-.6 6.1 14 10.1 16.7 2 1.3 6.8 1.5 11.1 1.6h.4.7 1.1" stroke-linecap="round" stroke-linejoin="round"/><path d="m25.1 37.2c-4.1-1.8-9.9-6.8-11.5-4.3-2 3.1 10 10.6 10 10.6" stroke-linecap="round" stroke-linejoin="round"/><path d="m40.7 39.4s-.1.1 0 0c0-.2 0-.3 0-.3s-.1.1 0 .3z" stroke-linecap="round" stroke-linejoin="round"/><path d="m28.4 52.8s1 11.2 3.2 11.2c3.3 0 2.6-22.7 2.6-22.7s9.3-7.6 7.3-10c-2.4-3-10.1 6.3-14 6.5-3.7.2-11.9-8.1-14-4.9-2 3 10 10.6 10 10.6s-2.2 20.5 2.1 20.5c2.8 0 2.8-11.2 2.8-11.2z" stroke-linecap="round" stroke-linejoin="round"/><circle cx="27.6" cy="30.8" r="3.7" stroke-linecap="round" stroke-linejoin="round"/><circle cx="25.7" cy="13.4" r="5"/></g></g></svg>