<svg xmlns="http://www.w3.org/2000/svg" xml:space="preserve" width="682.667" height="682.667"><defs><clipPath id="a" clipPathUnits="userSpaceOnUse"><path d="M0 512h512V0H0Z"/></clipPath></defs><g clip-path="url(#a)" transform="matrix(1.33333 0 0 -1.33333 0 682.667)"><path d="M0 0a24.932 24.932 0 0 0-17.196 6.851c-10.033 9.5-10.464 25.334-.964 35.366 25.978 27.436 37.145 67.455 33.191 118.947-3.1 40.372-14.565 71.695-14.68 72.006-4.8 12.956 1.813 27.35 14.769 32.149 12.956 4.801 27.35-1.814 32.149-14.77.57-1.541 14.018-38.277 17.648-85.555C69.927 99.757 53.762 45.405 18.169 7.816 13.25 2.621 6.631 0 0 0" style="fill:#ffb3dd;fill-opacity:1;fill-rule:nonzero;stroke:none" transform="translate(169.465 7.5)"/><path d="M0 0c-11.113 0-21.258 7.459-24.191 18.714-16.463 63.183-.096 102.006 14.345 136.259 18.958 44.965 17.197 58.349 15.158 73.846-1.802 13.699 7.841 26.264 21.539 28.066 13.694 1.803 26.264-7.84 28.066-21.538 5.571-42.338-7.302-72.872-18.659-99.811C23.263 104.713 12.04 78.094 24.226 31.331 27.709 17.96 19.695 4.298 6.325.814A25.062 25.062 0 0 0 0 0" style="fill:#ffb3dd;fill-opacity:1;fill-rule:nonzero;stroke:none" transform="translate(92.606 16.276)"/><path d="M0 0a24.95 24.95 0 0 0-18.17 7.816c-35.592 37.589-51.757 91.941-46.746 157.178 3.63 47.278 17.077 84.014 17.648 85.555 4.799 12.956 19.194 19.568 32.149 14.77C-2.173 260.523 4.44 246.146-.34 233.197c-.277-.761-11.865-32.958-14.778-73.211-3.686-50.932 7.511-90.555 33.279-117.769 9.5-10.032 9.068-25.866-.964-35.366A24.939 24.939 0 0 0 0 0" style="fill:#ffb3dd;fill-opacity:1;fill-rule:nonzero;stroke:none" transform="translate(342.534 7.5)"/><path d="M0 0c-2.088 0-4.209.263-6.324.814-13.37 3.484-21.385 17.146-17.901 30.517 12.185 46.763.962 73.382-12.033 104.204-11.356 26.94-24.229 57.474-18.658 99.812 1.802 13.698 14.359 23.345 28.066 21.538 13.699-1.802 23.342-14.367 21.538-28.066-3.799-28.881 4.986-49.719 15.159-73.846 14.44-34.253 30.808-73.076 14.345-136.259C21.26 7.46 11.113 0 0 0" style="fill:#ffb3dd;fill-opacity:1;fill-rule:nonzero;stroke:none" transform="translate(419.394 16.276)"/><path d="M0 0c1.803 13.699-7.841 26.264-21.539 28.067-13.707 1.806-26.265-7.841-28.066-21.539-4.063-30.869 1.683-55.46 9.495-76.962a92.772 92.772 0 0 1 14.136-1.095 92.616 92.616 0 0 1 36.957 7.691C2.766-43.704-3.267-24.822 0 0" style="fill:#ff9dd3;fill-opacity:1;fill-rule:nonzero;stroke:none" transform="translate(414.083 245.095)"/><path d="M0 0c-12.955 4.798-27.35-1.814-32.148-14.77-.556-1.5-13.317-36.373-17.339-81.849a92.653 92.653 0 0 1 26.899 11.266A32.69 32.69 0 0 0-5.36-80.449c2.757 0 5.483-.365 8.126-1.043 4.48 28.431 11.794 48.767 12.013 49.37C19.56-19.173 12.946-4.795 0 0" style="fill:#ff9dd3;fill-opacity:1;fill-rule:nonzero;stroke:none" transform="translate(327.415 272.819)"/><path d="M0 0c-12.956-4.798-19.569-19.192-14.77-32.148.093-.25 7.495-20.489 12.017-49.341 2.639.676 5.36 1.04 8.113 1.04a32.685 32.685 0 0 0 17.227-4.904 92.673 92.673 0 0 1 26.9-11.267c-4.023 45.477-16.783 80.35-17.339 81.85C27.35-1.814 12.956 4.801 0 0" style="fill:#ff9dd3;fill-opacity:1;fill-rule:nonzero;stroke:none" transform="translate(184.585 272.819)"/><path d="M0 0c-13.698-1.802-23.341-14.368-21.54-28.067 1.879-14.275 3.507-26.778-11.063-63.804a92.612 92.612 0 0 1 37.038-7.725c4.754 0 9.477.377 14.135 1.096 7.812 21.5 13.558 46.091 9.496 76.961C26.264-7.841 13.694 1.802 0 0" style="fill:#ff9dd3;fill-opacity:1;fill-rule:nonzero;stroke:none" transform="translate(119.457 273.162)"/><path d="m0 0-15.152 47.629h-342.463L-372.768 0c-6.925-21.767 1.831-45.456 21.248-57.486a62.71 62.71 0 0 1 66.055 0 62.709 62.709 0 0 0 66.054 0 62.71 62.71 0 0 1 66.055 0 62.707 62.707 0 0 0 66.053 0h.001a62.709 62.709 0 0 1 66.054 0C-1.83-45.456 6.926-21.767 0 0" style="fill:#ff88ca;fill-opacity:1;fill-rule:nonzero;stroke:none" transform="translate(442.384 270.454)"/><path d="M0 0h-19.344l-15.153-47.629c-6.925-21.767 1.831-45.456 21.248-57.487 17.266-10.697 38.427-12.258 56.836-4.699C20.355-78.567 4.853-40.969 0 0" style="fill:#ff75c0;fill-opacity:1;fill-rule:nonzero;stroke:none" transform="translate(104.113 318.084)"/><path d="M0 0c-112.161 0-203.085-78.745-203.085-175.881 0-.26 0-.519.002-.779.193-38.641 34.544-68.112 72.854-63.054 41.053 5.42 84.812 8.347 130.229 8.347 45.417 0 89.176-2.927 130.229-8.347 38.309-5.058 72.661 24.413 72.855 63.054l.001.779C203.085-78.745 112.161 0 0 0" style="fill:#ffc8e5;fill-opacity:1;fill-rule:nonzero;stroke:none" transform="translate(256 504.5)"/><path d="M0 0c0-16.131-16.421-29.208-36.678-29.208-20.256 0-36.677 13.077-36.677 29.208s16.421 29.208 36.677 29.208C-16.421 29.208 0 16.131 0 0" style="fill:#ff9db0;fill-opacity:1;fill-rule:nonzero;stroke:none" transform="translate(193.275 353.963)"/><path d="M0 0c0-16.131 16.422-29.208 36.678-29.208 20.257 0 36.677 13.077 36.677 29.208s-16.42 29.208-36.677 29.208C16.422 29.208 0 16.131 0 0" style="fill:#ff9db0;fill-opacity:1;fill-rule:nonzero;stroke:none" transform="translate(318.725 353.963)"/><path d="M0 0c0 47.401 14.185 91.404 38.433 127.813-53.148-31.719-87.994-84.789-87.994-144.915l.002-.779c.18-35.727 29.562-63.591 64.271-63.597C5.218-56.186 0-28.719 0 0" style="fill:#ffb3dd;fill-opacity:1;fill-rule:nonzero;stroke:none" transform="translate(102.475 345.721)"/><path d="M0 0c0 9.642-7.816 17.458-17.458 17.458-9.641 0-17.458-7.816-17.458-17.458" style="fill:none;stroke:#000;stroke-width:15;stroke-linecap:round;stroke-linejoin:round;stroke-miterlimit:10;stroke-dasharray:none;stroke-opacity:1" transform="translate(195.43 385.747)"/><path d="M0 0c0 9.642 7.816 17.458 17.457 17.458C27.1 17.458 34.915 9.642 34.915 0" style="fill:none;stroke:#000;stroke-width:15;stroke-linecap:round;stroke-linejoin:round;stroke-miterlimit:10;stroke-dasharray:none;stroke-opacity:1" transform="translate(316.57 385.747)"/><path d="M0 0c4.503-5.167 11.127-8.437 18.519-8.437 7.391 0 14.015 3.27 18.518 8.437" style="fill:none;stroke:#000;stroke-width:15;stroke-linecap:round;stroke-linejoin:round;stroke-miterlimit:10;stroke-dasharray:none;stroke-opacity:1" transform="translate(237.481 365.343)"/><path d="M0 0a62.722 62.722 0 0 0-50.626 1.982c-2.375-9.705-6.551-22.028-13.579-38.698-14.441-34.253-30.809-73.076-14.346-136.259 2.933-11.255 13.079-18.714 24.192-18.714 2.088 0 4.21.263 6.324.814 13.37 3.484 21.385 17.146 17.901 30.516-12.185 46.764-.962 73.383 12.032 104.206C-11.066-39.466-3.455-21.396 0 0Z" style="fill:none;stroke:#000;stroke-width:15;stroke-linecap:round;stroke-linejoin:round;stroke-miterlimit:10;stroke-dasharray:none;stroke-opacity:1" transform="translate(146.965 207.965)"/><path d="M0 0a62.96 62.96 0 0 0-6.497 3.505 62.698 62.698 0 0 1-47.206 7.771c3.336-12.986 7.137-31.328 8.73-52.075 3.954-51.491-7.213-91.511-33.192-118.946-9.5-10.033-9.068-25.867.965-35.366a24.928 24.928 0 0 1 17.196-6.851c6.63 0 13.25 2.621 18.169 7.815 35.593 37.59 51.758 91.941 46.748 157.179C3.888-23.62 2.08-11.113 0 0Z" style="fill:none;stroke:#000;stroke-width:15;stroke-linecap:round;stroke-linejoin:round;stroke-miterlimit:10;stroke-dasharray:none;stroke-opacity:1" transform="translate(229.47 209.462)"/><path d="M0 0c-3.956 17.718-5.154 37.639-3.559 59.683 1.526 21.082 5.43 39.943 8.844 53.247a62.698 62.698 0 0 1-47.232-7.765 62.881 62.881 0 0 0-6.497-3.506c-2.079-11.113-3.888-23.619-4.913-36.968C-58.367-.546-42.201-54.898-6.609-92.488c4.92-5.194 11.537-7.815 18.169-7.815a24.936 24.936 0 0 1 17.196 6.851c10.033 9.499 10.465 25.333.965 35.366-8.274 8.737-15.037 18.761-20.295 30.021" style="fill:none;stroke:#000;stroke-width:15;stroke-linecap:round;stroke-linejoin:round;stroke-miterlimit:10;stroke-dasharray:none;stroke-opacity:1" transform="translate(330.975 107.803)"/><path d="M0 0c-5.588 13.253-10.752 25.517-13.646 38.664a62.722 62.722 0 0 0-50.559-1.948c3.454-21.397 11.066-39.466 18.101-56.154 12.995-30.822 24.217-57.441 12.032-104.205-3.484-13.37 4.531-27.032 17.901-30.516a25.048 25.048 0 0 1 6.324-.814c11.113 0 21.259 7.46 24.193 18.714C30.809-73.076 14.439-34.253 0 0Z" style="fill:none;stroke:#000;stroke-width:15;stroke-linecap:round;stroke-linejoin:round;stroke-miterlimit:10;stroke-dasharray:none;stroke-opacity:1" transform="translate(429.24 171.25)"/><path d="M0 0c-13.555-12.658-32.529-19.497-52.6-16.847-41.052 5.42-84.811 8.347-130.228 8.347s-89.176-2.927-130.229-8.347c-20.07-2.65-39.044 4.189-52.599 16.847l-3.556-11.179c-6.926-21.767 1.831-45.456 21.248-57.486a62.709 62.709 0 0 1 66.054 0 62.71 62.71 0 0 0 66.055 0 62.709 62.709 0 0 1 66.054 0 62.71 62.71 0 0 0 66.055 0 62.709 62.709 0 0 1 66.054 0h.001C1.725-56.635 10.481-32.946 3.557-11.179z" style="fill:none;stroke:#000;stroke-width:15;stroke-linecap:round;stroke-linejoin:round;stroke-miterlimit:10;stroke-dasharray:none;stroke-opacity:1" transform="translate(438.828 281.633)"/><path d="M0 0c-24.833-29.175-39.52-65.226-39.52-104.251l.002-.779c.194-38.642 34.546-68.112 72.855-63.054 41.053 5.42 84.812 8.346 130.229 8.346 45.417 0 89.176-2.926 130.228-8.346 38.31-5.058 72.662 24.412 72.856 63.054l.002.779c0 97.136-90.925 175.881-203.086 175.881-55.441 0-105.684-19.248-142.331-50.439" style="fill:none;stroke:#000;stroke-width:15;stroke-linecap:round;stroke-linejoin:round;stroke-miterlimit:10;stroke-dasharray:none;stroke-opacity:1" transform="translate(92.434 432.87)"/></g></svg>