<svg xmlns="http://www.w3.org/2000/svg" xml:space="preserve" style="enable-background:new 0 0 511.997 511.997" viewBox="0 0 511.997 511.997"><path d="M65.641 336.095C38.448 326.198.468 291.842 8.608 269.479c8.14-22.364 59.317-24.268 86.51-14.371 27.193 9.897 36.892 33.959 28.752 56.323-8.139 22.364-31.036 34.562-58.229 24.664z" style="fill:#464d59"/><path d="M65.641 336.095C38.448 326.198.468 291.842 8.608 269.479c8.14-22.364 59.317-24.268 86.51-14.371 27.193 9.897 36.892 33.959 28.752 56.323-8.139 22.364-31.036 34.562-58.229 24.664z" style="opacity:.1;enable-background:new"/><path d="M95.118 255.107c-10.001-3.64-23.246-5.681-36.401-5.697-4.741 29.874-5.022 58.527-.905 83.314 2.672 1.316 5.298 2.45 7.829 3.371 27.193 9.897 50.09-2.3 58.23-24.665 8.14-22.363-1.56-46.425-28.753-56.323z" style="opacity:.1;enable-background:new"/><path d="M446.352 336.095c27.193-9.897 65.173-44.253 57.033-66.616-8.14-22.364-59.317-24.268-86.511-14.371-27.193 9.897-36.892 33.959-28.752 56.323 8.14 22.364 31.037 34.562 58.23 24.664z" style="fill:#464d59"/><path d="M446.352 336.095c27.193-9.897 65.173-44.253 57.033-66.616-8.14-22.364-59.317-24.268-86.511-14.371-27.193 9.897-36.892 33.959-28.752 56.323 8.14 22.364 31.037 34.562 58.23 24.664z" style="opacity:.1;enable-background:new"/><path d="M416.875 255.107c10.001-3.64 23.246-5.681 36.401-5.697 4.741 29.874 5.022 58.527.905 83.314-2.672 1.316-5.298 2.45-7.829 3.371-27.193 9.897-50.09-2.3-58.23-24.665-8.14-22.363 1.56-46.425 28.753-56.323z" style="opacity:.1;enable-background:new"/><path d="M255.997 436.938c86.739 0 156.844-17.494 178.127-87.765 27.924-92.193-26.915-290.386-178.127-290.386S49.946 256.98 77.87 349.174c21.283 70.27 91.388 87.764 178.127 87.764z" style="fill:#464d59"/><path d="M362.861 301.14c-5.296-10.8-3.061-23.707 5.393-32.264 14.497-14.674 23.279-35 22.727-57.383-1.026-41.624-34.905-75.648-76.525-76.841-18.654-.535-35.894 5.416-49.647 15.758-5.194 3.905-12.43 3.905-17.625 0-13.753-10.341-30.994-16.292-49.648-15.758-41.619 1.193-75.499 35.216-76.525 76.841-.551 22.383 8.231 42.708 22.727 57.383 8.454 8.557 10.69 21.464 5.393 32.264-15.68 31.972-25.609 69.557-30.052 105.563 33.425 23.169 81.81 30.236 136.916 30.236s103.491-7.067 136.916-30.235c-4.441-36.007-14.371-73.591-30.05-105.564z" style="fill:#fff"/><path d="M255.997 263.705c12.374 0 25.638-11.209 28.298-30.284 3.223-23.115-12.669-28.04-28.298-28.04s-31.521 4.925-28.298 28.04c2.66 19.075 15.924 30.284 28.298 30.284z" style="fill:#f1c650"/><path d="M261.833 262.893c-19.673-7.365-25.781-43.427-17.251-56.392-10.938 2.458-19.305 9.556-16.884 26.921 2.66 19.075 15.924 30.284 28.298 30.284a21.9 21.9 0 0 0 5.837-.813z" style="opacity:.1;enable-background:new"/><ellipse cx="175.653" cy="218.992" rx="26.532" ry="21.131" style="fill:#f27281"/><ellipse cx="336.349" cy="218.992" rx="26.532" ry="21.131" style="fill:#f27281"/><path d="M189.115 73.535C88.977 121.15 54.541 272.152 77.87 349.174c21.285 70.271 91.388 87.765 178.127 87.765 34.58 0 66.511-2.786 93.764-10.582-207.059 8.255-209.314-257.924-160.646-352.822z" style="opacity:.1;enable-background:new"/><path d="M219.484 453.221H187.65c-9.641 0-17.458-7.816-17.458-17.458 0-9.641 7.816-17.458 17.458-17.458h31.834c9.641 0 17.458 7.816 17.458 17.458-.002 9.642-7.817 17.458-17.458 17.458zM292.51 453.221h31.834c9.641 0 17.458-7.816 17.458-17.458 0-9.641-7.816-17.458-17.458-17.458H292.51c-9.641 0-17.458 7.816-17.458 17.458.001 9.642 7.817 17.458 17.458 17.458z" style="fill:#f1c650"/><path d="M510.434 266.914c-7.35-20.195-38.601-26.742-67.027-24.635-5.223-28.002-14.299-56.088-26.838-81.087a7.5 7.5 0 0 0-13.408 6.725c26.72 53.267 37.018 120.914 26.4 168.998-.037.149-.067.3-.094.452a135.641 135.641 0 0 1-2.519 9.631c-5.672 18.725-15.005 33.734-28.432 45.747-5.46-34.677-15.362-67.262-28.919-94.908-3.852-7.853-2.246-17.375 3.995-23.691 16.634-16.839 25.474-39.155 24.89-62.839-.544-22.06-9.501-42.903-25.224-58.69-15.724-15.788-36.528-24.831-58.585-25.463-19.799-.563-38.598 5.4-54.37 17.26a7.193 7.193 0 0 1-8.608-.001c-15.771-11.858-34.569-17.824-54.37-17.26-22.057.632-42.862 9.675-58.585 25.463-15.722 15.788-24.679 36.63-25.223 58.69-.584 23.684 8.255 46.001 24.889 62.839 6.24 6.317 7.846 15.838 3.995 23.69-4.726 9.637-9.074 20.054-12.924 30.959a7.5 7.5 0 1 0 14.145 4.993c3.656-10.357 7.776-20.232 12.247-29.347 6.657-13.576 3.928-29.987-6.792-40.837-13.743-13.912-21.047-32.354-20.565-51.927.449-18.205 7.855-35.419 20.856-48.475 13-13.055 30.184-20.532 48.385-21.054 16.368-.474 31.899 4.46 44.925 14.254 7.842 5.897 18.797 5.897 26.639 0 13.026-9.794 28.569-14.728 44.926-14.255 18.201.521 35.385 7.998 48.386 21.054 13.001 13.054 20.408 30.27 20.856 48.475.482 19.573-6.82 38.014-20.564 51.927-10.72 10.85-13.449 27.262-6.792 40.837 13.727 27.989 23.858 62.843 28.733 98.6-11.457 7.272-25.006 12.936-41.025 17.158-4.577-5.721-11.61-9.395-19.49-9.395H292.51c-11.528 0-21.252 7.859-24.105 18.5-8.142.172-16.674.172-24.816 0-2.854-10.64-12.576-18.5-24.105-18.5H187.65c-7.879 0-14.913 3.674-19.49 9.394-16.024-4.223-29.575-9.889-41.035-17.165a367.992 367.992 0 0 1 6.981-37.059 7.5 7.5 0 0 0-14.577-3.537 382.003 382.003 0 0 0-6.045 30.309c-13.428-12.013-22.763-27.024-28.435-45.75a132.592 132.592 0 0 1-2.579-9.957c-5.185-23.6-5.574-53.297-.648-84.407a7.55 7.55 0 0 0 .284-1.28 7.64 7.64 0 0 0 .057-.809c6.677-40.303 22.258-82.788 47.879-117.319 22.659-30.538 62.903-66.94 125.957-66.94 66.646 0 108.075 40.333 131.094 74.17a7.5 7.5 0 1 0 12.402-8.437c-35.93-52.815-85.551-80.733-143.496-80.733-54.848 0-102.569 25.244-138.004 73.003-23.483 31.649-40.987 73.105-49.288 116.729-.079.418-.152.835-.23 1.252-28.397-2.08-59.574 4.475-66.914 24.643-4.701 12.917 1.284 29.143 16.853 45.688 12.61 13.401 29.725 25.105 44.664 30.541a68.625 68.625 0 0 0 5.858 1.832 138.794 138.794 0 0 0 1.757 6.372c12.838 42.388 42.995 69.562 92.049 82.922-.029.495-.049.993-.049 1.495 0 13.761 11.195 24.958 24.958 24.958h31.834c10.767 0 19.963-6.854 23.455-16.428 4.276.093 8.641.145 13.058.145s8.781-.051 13.058-.145c3.492 9.573 12.687 16.428 23.455 16.428h31.834c13.762 0 24.958-11.195 24.958-24.958 0-.502-.019-1-.049-1.494 49.054-13.358 79.21-40.532 92.049-82.922a142.55 142.55 0 0 0 1.747-6.369 68.605 68.605 0 0 0 5.868-1.834c14.939-5.438 32.052-17.141 44.663-30.541 15.567-16.542 21.552-32.768 16.851-45.685zM65.622 328.037c-12.12-5.02-26.083-14.873-36.284-25.715-11.153-11.852-16.268-23.172-13.682-30.278 3.749-10.303 25.568-16.499 50.427-14.913-3.414 25.119-3.553 49.588-.461 70.906zm163.784 108.408c-.352 5.173-4.661 9.276-9.922 9.276H187.65c-5.49 0-9.957-4.466-9.957-9.957 0-5.49 4.466-9.957 9.957-9.957h31.834c5.478 0 9.934 4.447 9.955 9.92l-.033.535c-.003.061.001.122 0 .183zm94.938 9.276H292.51c-5.261 0-9.571-4.105-9.922-9.279-.002-.065.003-.128 0-.193l-.034-.485c0-5.49 4.466-9.957 9.956-9.957h31.834c5.49 0 9.957 4.467 9.957 9.957.001 5.491-4.466 9.957-9.957 9.957zM446.38 328.038c3.152-21.611 2.867-45.991-.565-70.9 24.899-1.607 46.769 4.589 50.523 14.906 5.572 15.309-24.336 45.424-49.958 55.994zM185.982 196.002a5.134 5.134 0 0 1 5.128-5.128 5.134 5.134 0 0 1 5.128 5.128 7.5 7.5 0 0 0 15 0c0-11.099-9.03-20.129-20.129-20.129-11.099 0-20.129 9.03-20.129 20.129a7.5 7.5 0 0 0 7.5 7.5 7.5 7.5 0 0 0 7.502-7.5zm129.773 0a5.134 5.134 0 0 1 5.128-5.128 5.135 5.135 0 0 1 5.128 5.128 7.5 7.5 0 0 0 7.5 7.5 7.5 7.5 0 0 0 7.5-7.5c0-11.099-9.029-20.129-20.129-20.129s-20.129 9.03-20.129 20.129a7.5 7.5 0 0 0 7.5 7.5 7.5 7.5 0 0 0 7.502-7.5zm-59.758 75.203c15.207 0 32.361-12.622 35.726-36.748 1.524-10.93-.507-19.694-6.037-26.049-6.079-6.985-16.068-10.527-29.688-10.527-13.621 0-23.61 3.542-29.689 10.527-5.53 6.355-7.561 15.12-6.038 26.049 3.364 24.125 20.518 36.748 35.726 36.748zm-18.373-52.95c3.103-3.566 9.284-5.374 18.373-5.374s15.27 1.808 18.373 5.374c2.555 2.936 3.395 7.689 2.497 14.13-2.158 15.472-12.363 23.82-20.87 23.82-8.507 0-18.712-8.348-20.87-23.819-.898-6.442-.058-11.196 2.497-14.131z"/></svg>