<svg id="Capa_1" enable-background="new 0 0 512 512" height="512" viewBox="0 0 512 512" width="512" xmlns="http://www.w3.org/2000/svg"><g><g><path d="m386.552 83.21c15.955-4.653 27.617-19.378 27.617-36.835-.001-21.194-17.182-38.375-38.376-38.375-18.193 0-33.418 12.664-37.368 29.655-22.771-13.849-50.417-22.583-82.425-22.583s-59.654 8.734-82.426 22.583c-3.95-16.991-19.174-29.655-37.367-29.655-21.194 0-38.375 17.181-38.375 38.375 0 17.458 11.662 32.183 27.617 36.835-16.134 23.311-25.058 49.278-25.938 72.212-2.463 64.197 60.383 104.916 156.489 104.916s158.953-40.719 156.49-104.915c-.88-22.934-9.805-48.902-25.938-72.213z" fill="#edbca4"/><path d="m395.029 390.307.062-.008v.003c15.923-22.237 39.806-33.659 60.986-26.706 28.269 9.281 41.016 47.78 28.471 85.99-10.682 32.537-36.258 54.356-61.071 54.392l.009.022h-167.486-167.485l.009-.022c-24.814-.036-50.389-21.856-61.071-54.392-12.544-38.21.203-76.709 28.471-85.99 21.18-6.954 45.064 4.469 60.986 26.706v-.003l.062.008z" fill="#edbca4"/><path d="m484.547 431.585c-10.682 32.537-36.258 54.356-61.071 54.392l.009.022h-167.485-167.485l.009-.022c-24.814-.036-50.389-21.856-61.071-54.392-2.251-6.856-3.674-13.719-4.353-20.424-1.289 12.036.027 25.246 4.353 38.424 10.682 32.537 36.258 54.356 61.071 54.392l-.009.023h167.485 167.485l-.009-.022c24.814-.036 50.389-21.856 61.071-54.392 4.326-13.177 5.642-26.388 4.353-38.424-.678 6.704-2.102 13.567-4.353 20.423z" fill="#eaab92"/><path d="m392.86 212.971c-16.622-11.226-36.983-17.332-58.244-17.332-20.096 0-40.18 5.48-56.551 15.43-7.012 4.262-13.198 9.205-18.479 14.729-1.953 2.043-5.222 2.043-7.176 0-5.28-5.523-11.466-10.465-18.479-14.727-16.372-9.95-36.454-15.431-56.548-15.432-21.264-.001-41.626 6.104-58.247 17.329 25.451 29.974 74.05 47.37 136.863 47.37 62.811 0 111.41-17.395 136.861-47.367z" fill="#eaab92"/><g><path d="m256 260.338c-20.643-65.873-151.6-76.556-166.393 31.584-16.826 122.999 166.393 212.078 166.393 212.078s183.219-89.079 166.393-212.077c-14.793-108.14-145.75-97.458-166.393-31.585z" fill="#da4a54"/></g><path d="m253.73 484.859c-19.416-9.931-157.048-83.796-164.865-185.896-9.112 119.342 167.135 205.037 167.135 205.037s176.247-85.695 167.135-205.037c-7.817 102.1-145.449 175.965-164.865 185.896-1.427.73-3.113.73-4.54 0z" fill="#d82e3d"/><path d="m137.132 287.944c-9.552 32.355-27.896 55.454-50.069 48.908s-31.586-37.84-22.034-70.195 34.451-53.519 56.624-46.973 25.03 35.904 15.479 68.26z" fill="#edbca4"/><path d="m374.868 287.944c9.552 32.355 27.896 55.454 50.069 48.908s31.586-37.84 22.034-70.195-34.451-53.519-56.624-46.973-25.03 35.904-15.479 68.26z" fill="#edbca4"/><path d="m137.132 269.944c-9.552 32.355-27.896 55.454-50.069 48.908-14.114-4.167-23.047-18.367-25.22-36.479-2.929 26.23 6.68 49.006 25.22 54.479 22.173 6.546 40.517-16.553 50.069-48.908 4.372-14.809 6.134-28.983 4.644-40.636-.762 7.185-2.337 14.821-4.644 22.636z" fill="#eaab92"/><path d="m424.938 318.852c-22.173 6.546-40.517-16.553-50.069-48.908-2.307-7.815-3.882-15.45-4.644-22.636-1.49 11.654.272 25.827 4.644 40.636 9.552 32.355 27.896 55.454 50.069 48.908 18.54-5.473 28.148-28.25 25.22-54.48-2.174 18.113-11.106 32.313-25.22 36.48z" fill="#eaab92"/><ellipse cx="78.638" cy="432.781" fill="#edf4fa" rx="21.391" ry="35.319" transform="matrix(.95 -.312 .312 .95 -131.071 46.122)"/><ellipse cx="433.362" cy="432.781" fill="#edf4fa" rx="35.319" ry="21.391" transform="matrix(.312 -.95 .95 .312 -113.002 709.527)"/><path d="m89.655 448.338c-11.224 3.685-25.256-8.352-31.34-26.885-.816-2.487-1.442-4.963-1.897-7.397-1.607 7.233-1.106 16.25 1.897 25.397 6.085 18.533 20.116 30.57 31.34 26.885 9.718-3.19 14.14-17.122 11.204-32.832-1.65 7.422-5.52 12.966-11.204 14.832z" fill="#d8e5ef"/><path d="m453.686 421.453c-6.085 18.533-20.116 30.57-31.34 26.885-5.685-1.866-9.555-7.41-11.204-14.832-2.936 15.71 1.486 29.642 11.204 32.832 11.224 3.685 25.256-8.352 31.34-26.885 3.003-9.147 3.505-18.164 1.897-25.398-.455 2.436-1.081 4.912-1.897 7.398z" fill="#d8e5ef"/><g fill="#edf4fa"><ellipse cx="136.145" cy="46.149" rx="15.794" ry="15.794" transform="matrix(.987 -.161 .161 .987 -5.659 22.55)"/><ellipse cx="375.855" cy="46.149" rx="15.794" ry="15.794" transform="matrix(.161 -.987 .987 .161 269.722 409.649)"/></g></g><g><path d="m89.777 398.921c-7.886-6.766-16.947-9.156-24.869-6.557-7.917 2.599-13.8 9.897-16.143 20.021-2.067 8.932-1.348 19.504 2.022 29.771 3.371 10.266 9.059 19.207 16.017 25.176 5.799 4.975 12.234 7.584 18.381 7.584 2.214 0 4.391-.339 6.487-1.027 7.918-2.599 13.801-9.896 16.144-20.021 2.067-8.931 1.348-19.504-2.022-29.771-3.371-10.265-9.059-19.207-16.017-25.176zm3.396 51.56c-1.129 4.881-3.385 8.208-6.189 9.129-2.803.918-6.592-.422-10.394-3.684-4.834-4.146-9.033-10.873-11.522-18.457-2.49-7.584-3.095-15.492-1.659-21.695 1.129-4.881 3.385-8.209 6.189-9.129.579-.19 1.2-.284 1.855-.284 2.514 0 5.522 1.38 8.539 3.968 4.834 4.146 9.033 10.873 11.522 18.457v.001c2.49 7.583 3.095 15.49 1.659 21.694z"/><path d="m447.093 392.365c-7.919-2.6-16.982-.209-24.87 6.557-6.958 5.969-12.646 14.91-16.017 25.177-3.371 10.267-4.089 20.84-2.023 29.771 2.342 10.125 8.226 17.422 16.143 20.021 2.097.689 4.274 1.027 6.488 1.027 6.147 0 12.582-2.609 18.381-7.584 6.958-5.969 12.646-14.91 16.017-25.176 7.505-22.859 1.303-44.73-14.119-49.793zm-.161 45.104c-2.489 7.584-6.689 14.311-11.522 18.457-3.801 3.262-7.59 4.604-10.395 3.684-2.803-.92-5.059-4.248-6.188-9.129-1.435-6.204-.831-14.111 1.659-21.695 0-.001 0-.001 0-.001 2.489-7.584 6.689-14.311 11.522-18.457 3.018-2.589 6.025-3.968 8.54-3.968.655 0 1.276.093 1.855.284 6.244 2.05 9.506 15.667 4.529 30.825z"/><path d="m493.2 393.654c-6.156-18.592-18.368-31.728-34.387-36.987-12.276-4.03-25.477-2.892-37.915 2.672 1.991-4.914 3.696-9.837 5.12-14.765.459-.117.918-.221 1.378-.357 13.184-3.891 23.131-14.706 28.01-30.452 4.517-14.576 4.213-32.054-.852-49.215-5.066-17.161-14.304-32.001-26.013-41.787-7.818-6.534-16.237-10.426-24.642-11.534 11.579-16.321 17.208-35.417 16.407-56.285-.04-1.065-.098-2.137-.17-3.214-.28-4.141-3.853-7.275-8.003-6.993-4.141.279-7.272 3.861-6.993 8.002.063.928.113 1.85.148 2.774.886 23.106-7.18 42.922-23.993 58.98-24.344-13.095-55.514-15.092-82.777-5.024-18.561 6.854-33.384 18.53-42.517 33.117-9.132-14.586-23.956-26.263-42.517-33.117-27.264-10.067-58.432-8.071-82.777 5.024-16.813-16.059-24.88-35.875-23.993-58.98.845-22.027 9.833-46.945 24.658-68.365 2.942-4.012.736-10.23-4.075-11.491-13.106-3.822-22.259-16.032-22.259-29.693 0-17.058 13.878-30.935 30.935-30.935 14.463 0 26.849 9.828 30.121 23.9.991 4.863 7.054 7.413 11.224 4.719 23.493-14.288 49.966-21.533 78.682-21.533s55.189 7.245 78.682 21.533c4.171 2.695 10.233.144 11.224-4.719 3.272-14.072 15.659-23.9 30.121-23.9 17.058 0 30.935 13.878 30.935 30.935 0 13.661-9.154 25.871-22.259 29.693-4.812 1.261-7.017 7.48-4.075 11.491 8.303 11.998 14.686 24.76 18.972 37.932 1.284 3.947 5.527 6.105 9.471 4.821 3.946-1.284 6.105-5.524 4.821-9.471-3.825-11.759-9.149-23.201-15.866-34.121 14.477-7.94 23.967-23.391 23.967-40.345-.001-25.344-20.62-45.964-45.966-45.964-18.144 0-34.087 10.411-41.54 26.241-23.828-12.717-50.184-19.155-78.487-19.155s-54.66 6.438-78.487 19.155c-7.453-15.83-23.397-26.241-41.54-26.241-25.345 0-45.965 20.62-45.965 45.965 0 16.955 9.49 32.405 23.968 40.345-13.564 22.046-21.417 46.111-22.28 68.628-.802 20.894 4.831 40.012 16.434 56.345-13.034 1.761-26.073 10.147-36.291 23.917-2.474 3.333-1.777 8.039 1.556 10.513 3.333 2.473 8.04 1.777 10.513-1.557 10.429-14.052 23.981-20.691 35.354-17.335 18.919 5.586 17.443 35.305 10.431 59.058-4.561 15.448-11.16 28.258-18.582 36.07-7.201 7.579-14.475 10.147-22.25 7.855-8.205-2.423-14.566-9.698-17.908-20.486-3.649-11.775-3.326-26.163.911-40.512 1.175-3.98-1.1-8.16-5.079-9.335-3.983-1.179-8.16 1.099-9.336 5.079-5.066 17.161-5.369 34.639-.852 49.215 4.879 15.745 14.826 26.56 28.009 30.452.46.136.918.24 1.376.356 1.423 4.931 3.121 9.851 5.101 14.757-12.431-5.556-25.623-6.691-37.893-2.664-16.02 5.259-28.232 18.395-34.388 36.987-5.89 17.79-5.513 38.62 1.065 58.655 11.436 34.831 39.202 59.264 67.686 59.665.21.018.423.027.636.027h335.626c.212 0 .424-.009.633-.027 28.485-.397 56.252-24.832 67.689-59.665 6.575-20.034 6.953-40.865 1.063-58.654zm-53.062-124.848c4.237 14.349 4.56 28.736.911 40.512-3.342 10.788-9.702 18.063-17.909 20.486-7.769 2.295-15.05-.276-22.249-7.855-7.423-7.812-14.022-20.622-18.582-36.07-7.013-23.753-8.488-53.473 10.431-59.058 1.98-.585 4.025-.874 6.108-.874 6.547 0 13.481 2.854 20.055 8.349 9.457 7.905 16.999 20.161 21.235 34.51zm-351.931 228.143c-21.952-.032-44.689-20.778-54.063-49.328-11.256-34.287-.611-68.683 23.732-76.674 17.268-5.67 37.69 3.508 52.203 23.385 16.274 23.802 39.203 47.181 68.648 69.922 17.844 13.782 34.898 24.813 48.131 32.717h-138.086c-.187-.014-.375-.022-.565-.022zm389.648-49.329c-9.374 28.55-32.111 49.296-54.063 49.328-.189.001-.376.008-.563.022h-138.094c12.754-7.618 29.052-18.135 46.201-31.231 3.298-2.519 3.93-7.235 1.412-10.533-2.519-3.298-7.235-3.932-10.533-1.412-29.457 22.494-56.951 37.45-66.209 42.259-20.215-10.539-127.493-69.728-154.233-151.27 7.143-1.707 13.971-5.892 20.233-12.482 9.161-9.643 16.803-24.224 22.101-42.167 8.201-27.781 7.107-50.48-2.287-64.4 19.973-9.278 44.632-10.224 66.458-2.164 20.354 7.516 35.135 21.74 40.551 39.024.982 3.135 3.887 5.268 7.171 5.268s6.189-2.133 7.171-5.268c5.416-17.284 20.197-31.508 40.551-39.024 21.826-8.059 46.485-7.114 66.458 2.164-9.394 13.92-10.488 36.619-2.287 64.4 5.297 17.943 12.939 32.524 22.101 42.167 6.264 6.592 13.092 10.777 20.237 12.484-4.504 13.768-11.493 27.552-20.928 41.286-.076.102-.147.206-.218.312-11.26 16.326-25.966 32.58-44.053 48.651-3.103 2.756-3.383 7.506-.626 10.609 1.484 1.671 3.548 2.523 5.62 2.523 1.775 0 3.557-.625 4.988-1.897 18.847-16.745 34.261-33.786 46.189-51.008.088-.109.186-.207.268-.322 14.538-20.302 35.204-29.722 52.652-23.993 24.343 7.991 34.989 42.388 23.732 76.674z"/><path d="m181.005 117.445v10.625c0 4.15 3.364 7.515 7.515 7.515s7.515-3.364 7.515-7.515v-10.625c0-4.15-3.364-7.515-7.515-7.515s-7.515 3.365-7.515 7.515z"/><path d="m315.966 117.445v10.625c0 4.15 3.364 7.515 7.515 7.515s7.515-3.364 7.515-7.515v-10.625c0-4.15-3.364-7.515-7.515-7.515s-7.515 3.365-7.515 7.515z"/><path d="m256 166.342c4.151 0 7.515-3.364 7.515-7.515v-23.857c8.986-1.556 14.479-6.004 14.479-12.213 0-7.792-8.633-12.827-21.994-12.827s-21.994 5.035-21.994 12.827c0 6.209 5.493 10.657 14.479 12.213v23.857c0 4.151 3.364 7.515 7.515 7.515z"/></g></g></svg>