<svg xmlns="http://www.w3.org/2000/svg" width="512" height="512" viewBox="0 0 256 256"><path fill="#f89422" d="m198.316 235.004 11.267-26.693c15.293-42.919-2.454-51.994-20.671-51.817 1.828 22.015-1.075 48.161-15.846 74.176-1.763 3.105-.917 6.942 1.954 9.185 1.8 1.407 3.755 3.182 5.349 5.237 2.397 3.088.526 7.303-3.108 8.22l.187.188h37.318c3.187-13.589-8.933-15.575-14.714-15.766-1.377-.045-2.271-1.462-1.736-2.73zM75.631 245.092c1.595-2.055 3.549-3.83 5.349-5.237 2.871-2.243 3.717-6.08 1.954-9.185-14.772-26.014-17.674-52.161-15.846-74.176-18.216-.177-35.963 8.898-20.671 51.817l11.267 26.693c.535 1.268-.36 2.685-1.735 2.731-5.782.191-17.901 2.176-14.714 15.766h37.318l.187-.188c-3.635-.918-5.506-5.133-3.109-8.221zM172.957 35.069c6.787-1.349 16.574-4.869 19.039-14.046 3.869-14.41-20.878-23.782-23.154-15.305-1.878 6.992-9.518 12.432-12.138 14.124a55.346 55.346 0 0 1 16.253 15.227zM83.043 35.069a55.324 55.324 0 0 1 16.253-15.228c-2.62-1.692-10.26-7.132-12.138-14.124-2.276-8.477-27.024.895-23.154 15.305C66.469 30.2 76.256 33.72 83.043 35.069z"/><path fill="#f89422" d="M200.639 76.83s-4.24-.012-11.081-5.605l5.629-7.112s-6.089-.019-13.626-10.01c-5.742-24.271-27.534-42.336-53.56-42.336S80.182 29.832 74.44 54.103c-7.537 9.991-13.626 10.01-13.626 10.01l5.629 7.112c-6.842 5.593-11.081 5.605-11.081 5.605 4.427 8.822 14.206 11.782 14.206 11.782l-9.856 3.363c7.901 16.476 18.147 27.059 37.36 27.951-3.167-5.098-2.719-11.724.877-16.603a15.397 15.397 0 0 1 17.81-5.278c-.956.652-1.531 1.525-1.531 2.716 0 4.228 7.061 10.208 13.772 10.208s13.772-5.979 13.772-10.208c0-1.191-.575-2.064-1.531-2.716a15.397 15.397 0 0 1 17.81 5.278c3.595 4.88 4.044 11.505.877 16.603 19.213-.892 29.459-11.475 37.36-27.951l-9.856-3.363s9.78-2.959 14.207-11.782z"/><path fill="#f89422" d="M175.019 239.855c-2.871-2.243-3.717-6.08-1.954-9.185 26.584-46.817 14.746-94.064 6.029-116.862-5.439 3.598-11.988 5.739-20.166 6.119-.14.225-.277.452-.431.671a14.547 14.547 0 0 1-10.766 6.156 14.746 14.746 0 0 0 1.92-.263c-3.799 8.146-12.057 13.794-21.638 13.794-9.591 0-17.854-5.66-21.648-13.819a14.538 14.538 0 0 1-8.863-5.868c-.154-.219-.291-.445-.431-.671-8.179-.38-14.728-2.521-20.168-6.12-8.717 22.802-20.55 70.053 6.03 116.863 1.763 3.105.917 6.942-1.954 9.185-1.8 1.407-3.755 3.182-5.349 5.237-2.703 3.483.016 8.408 4.579 8.408h26.44c3.05 0 5.446-2.278 5.606-5.033 4.898 1.758 10.196 2.743 15.744 2.743s10.846-.984 15.744-2.743v-.011c.155 2.76 2.552 5.044 5.606 5.044h26.44c4.562 0 7.282-4.925 4.579-8.408-1.594-2.055-3.549-3.83-5.349-5.237zM233.357 101.08c10.193-2.987 5.855-18.953-4.397-15.949-32.833 9.62-45.032 36.126-21.889 58.945 6.63 6.537 16.675 13.026 10.153 27.997a27.802 27.802 0 0 1-2.139 3.96c.803 6.33-.038 14.557-3.189 25.19 5.119-3.217 9.832-7.013 13.754-11.761 8.345-10.103 12.899-24.576 8.252-37.316-5.093-13.965-17.051-18.786-21.133-27.038-6.434-13.004 10.978-21.212 20.588-24.028z"/><path fill="#7d3d1a" d="M141.772 100.762c0 4.228-7.061 10.208-13.772 10.208s-13.772-5.979-13.772-10.208c0-4.228 7.061-4.554 13.772-4.554s13.772.326 13.772 4.554z"/><path fill="#f4dbce" d="M158.052 103.324a15.397 15.397 0 0 0-17.81-5.278c.955.652 1.531 1.525 1.531 2.716 0 4.228-7.061 10.208-13.772 10.208s-13.772-5.979-13.772-10.208c0-1.191.575-2.064 1.531-2.716a15.397 15.397 0 0 0-17.81 5.278c-3.754 5.095-4.089 12.098-.446 17.274a14.54 14.54 0 0 0 16.507 5.455l13.99-4.663 13.99 4.663a14.54 14.54 0 0 0 16.507-5.455c3.642-5.176 3.308-12.179-.446-17.274z"/><path fill="#f4dbce" d="m142.134 126.053-13.99-4.663-13.99 4.663a14.517 14.517 0 0 1-7.804.381c3.787 8.177 12.06 13.851 21.664 13.851 9.581 0 17.839-5.648 21.638-13.794a14.525 14.525 0 0 1-7.518-.438z"/><path fill="#f4dbce" d="M144.913 133.263c-4.32 4.336-10.295 7.022-16.9 7.022a23.774 23.774 0 0 1-16.915-7.039c-5.52 8.894-9.02 22.056-9.02 36.755 0 26.786 11.606 48.5 25.922 48.5s25.922-21.714 25.922-48.5c0-14.69-3.495-27.845-9.009-36.738zM200.051 237.734a1.925 1.925 0 0 1-1.517-.823c-6.879 2.147-9.617 7.067-17.535.589-3.556-2.909-6.629-2.502-8.617-1.614a7.419 7.419 0 0 0 2.636 3.969c1.8 1.406 3.755 3.182 5.349 5.237 2.397 3.088.526 7.303-3.108 8.22l.187.188h37.318c3.188-13.589-8.931-15.575-14.713-15.766zM78.739 253.312c-3.635-.917-5.505-5.132-3.108-8.22 1.595-2.055 3.549-3.83 5.349-5.237a7.419 7.419 0 0 0 2.636-3.969c-1.988-.888-5.061-1.295-8.617 1.614-7.918 6.478-10.655 1.558-17.535-.589a1.925 1.925 0 0 1-1.517.823c-5.782.191-17.901 2.176-14.714 15.766h37.318z"/><path fill="#f4dbce" d="M109.298 238.084c-6.55-.379-9.928 4.759-16.798-.584-2.829-2.2-6.126-2.682-8.693-2.624-.208 1.891-1.184 3.695-2.826 4.979-1.8 1.407-3.755 3.182-5.349 5.237-2.703 3.483.016 8.408 4.579 8.408h26.44c3.05 0 5.446-2.278 5.606-5.033.178-3.085-2.289-7.853-2.959-10.383zM180.369 245.092c-1.595-2.055-3.549-3.83-5.349-5.237-1.64-1.282-2.616-3.084-2.825-4.972-2.389.085-5.221.694-7.694 2.617-7.22 5.616-10.583-.346-17.824.687a22.77 22.77 0 0 1-1.261 3.501c-1.653 3.633-1.747 7.194-1.671 6.767.155 2.76 2.552 5.044 5.606 5.044h26.44c4.561.001 7.281-4.924 4.578-8.407z"/><g fill="#52565b"><path d="M149.959 20.339a29.887 29.887 0 0 0-11.698-7.605A55.32 55.32 0 0 0 128 11.768c-3.311 0-6.553.296-9.702.856a29.921 29.921 0 0 0-11.499 7.206l-5.907 5.931c28.946-11.47 53.554-.124 54.215 0zM146.593 34.499c-9.867-8.611-26.432-8.773-36.544-.357l-5.001 4.162c24.64-8.093 45.274-.098 45.905 0zM69.118 220.848c.939-.386.697-1.774-.316-1.825-4.122-.208-10.841-.821-19.011-2.719l3.732 8.841c4.035-.293 8.005-1.172 11.741-2.71zM45.418 205.378c3.476-.079 6.923-.637 10.219-1.737l3.628-1.21c.883-.295.75-1.58-.175-1.691-3.555-.424-9.219-1.331-16.047-3.33a121.053 121.053 0 0 0 2.375 7.968zM42.126 170.637c-1.111 3.257-1.653 7.202-1.463 11.96 7.134 2.851 14.83 4.113 22.404 3.292l4.656-.504c-.109-.828-.211-1.654-.303-2.476-5.638-1.997-14.869-5.774-25.294-12.272zM187.198 219.023c-1.014.051-1.255 1.439-.316 1.825l3.855 1.586c3.736 1.538 7.706 2.417 11.741 2.71l3.732-8.841c-8.171 1.898-14.89 2.512-19.012 2.72zM196.91 200.74c-.925.11-1.059 1.396-.175 1.691l3.628 1.21c3.296 1.1 6.743 1.658 10.219 1.737a121.053 121.053 0 0 0 2.375-7.968c-6.827 2-12.491 2.906-16.047 3.33zM188.277 185.384l4.656.504c7.574.821 15.27-.441 22.404-3.292.189-4.757-.352-8.703-1.463-11.96-10.425 6.498-19.655 10.275-25.293 12.271-.093.824-.195 1.649-.304 2.477zM142.792 49.157c-7.85-7.813-21.029-7.96-29.074-.324l-3.979 3.776c19.563-7.328 36.038-.086 36.521 0zM75.201 214.427c5.261.243 10.526-.552 15.366-2.544l3.537-1.456c.861-.354.64-1.628-.29-1.675-4.497-.227-12.37-.984-21.839-3.621.93 3.083 2.007 6.184 3.226 9.296z"/><path d="M68.575 190.875c6.323 1.553 12.959 1.6 19.143-.221l3.669-1.08c.893-.263.805-1.552-.115-1.696-4.883-.76-13.737-2.572-24.051-6.977.317 3.282.759 6.608 1.354 9.974zM66.626 165.909c7.375 2.138 15.286 2.248 22.465-.195l3.621-1.232c.882-.3.74-1.585-.185-1.689-5.082-.576-14.464-2.105-25.428-6.402-.26 3.094-.421 6.272-.473 9.518zM69.077 141.642c6.207 1.466 12.7 1.478 18.761-.302l3.669-1.078c.894-.263.806-1.552-.114-1.696-4.307-.674-11.704-2.167-20.465-5.538a157.978 157.978 0 0 0-1.851 8.614zM188.902 156.391c-10.964 4.297-20.346 5.826-25.428 6.402-.925.105-1.067 1.389-.185 1.689l3.621 1.232c7.18 2.443 15.091 2.333 22.466.194a141.912 141.912 0 0 0-.474-9.517zM185.071 133.029c-8.761 3.371-16.158 4.864-20.465 5.537-.92.144-1.007 1.433-.114 1.696l3.669 1.078c6.061 1.781 12.555 1.768 18.761.302a155.878 155.878 0 0 0-1.851-8.613zM164.728 187.878c-.92.143-1.008 1.433-.115 1.696l3.669 1.08c6.185 1.821 12.821 1.774 19.144.221a127.528 127.528 0 0 0 1.354-9.974c-10.315 4.406-19.169 6.217-24.052 6.977zM162.187 208.753c-.93.047-1.152 1.32-.29 1.675l3.537 1.456c4.84 1.992 10.105 2.788 15.366 2.544a122.967 122.967 0 0 0 3.227-9.296c-9.47 2.636-17.343 3.394-21.84 3.621zM196.194 112.104c4.82 2.647 10.069 4.432 15.457 5.12.454-1.947 1.453-3.733 2.809-5.36a119.898 119.898 0 0 1-13.693-8.869c-2.099 2.871-3.642 5.926-4.573 9.109zM214.776 128.23a262.876 262.876 0 0 1-14.692 7.251c1.705 2.73 3.88 5.442 6.519 8.108 5.361-2.359 10.486-5.127 15.183-8.216-2.623-2.473-5.118-4.721-7.01-7.143zM217.952 170.229c6.221-.845 12.268-2.703 17.757-5.579a32.594 32.594 0 0 0-.677-8.495 144.64 144.64 0 0 1-16.585 1.696c1.195 3.372 1.313 7.377-.495 12.378zM215.141 175.938c-.02.031-.037.064-.056.095.466 3.67.357 8.001-.413 13.045a58.64 58.64 0 0 0 8.461 3.177 47.935 47.935 0 0 0 2.516-2.794 46.237 46.237 0 0 0 5.425-8.23 143.003 143.003 0 0 1-15.933-5.293zM228.96 85.131c-3.903 1.144-7.505 2.533-10.8 4.119l8.092 14.45c2.521-1.128 5-2.003 7.105-2.62 10.194-2.986 5.856-18.953-4.397-15.949z"/></g><path d="M214.766 256h-37.318a2.501 2.501 0 0 1-1.775-.739l-.187-.188a2.501 2.501 0 0 1 1.163-4.184c1.006-.254 1.832-.992 2.153-1.927.197-.572.286-1.442-.408-2.336-1.256-1.619-2.91-3.233-4.914-4.8-3.862-3.018-4.951-8.228-2.589-12.389 12.486-21.989 17.711-46.46 15.529-72.734a2.5 2.5 0 0 1 2.467-2.707c11.42-.1 19.605 3.229 24.376 9.924 6.542 9.182 6.096 24.4-1.326 45.232a2.153 2.153 0 0 1-.052.133l-10.969 25.988c4.105.234 10.732 1.386 14.358 6.118 2.489 3.249 3.136 7.515 1.925 12.682a2.5 2.5 0 0 1-2.433 1.927zm-31.39-5h29.305c.336-2.732-.124-4.937-1.375-6.57-2.614-3.412-8.225-4.094-11.337-4.197a4.45 4.45 0 0 1-3.603-2.051 4.472 4.472 0 0 1-.353-4.15l11.239-26.627c6.819-19.167 7.472-32.821 1.94-40.585-3.41-4.786-9.32-7.396-17.585-7.779 1.689 26.255-3.812 50.755-16.367 72.864-1.146 2.019-.604 4.479 1.319 5.98 2.33 1.821 4.276 3.73 5.785 5.674 1.588 2.046 2.021 4.609 1.186 7.031a8.034 8.034 0 0 1-.154.41zm17.243-15.024.001-.002zM78.553 256H41.234a2.5 2.5 0 0 1-2.434-1.929c-1.211-5.167-.564-9.434 1.925-12.682 3.625-4.732 10.252-5.884 14.358-6.118l-10.969-25.988a2.153 2.153 0 0 1-.052-.133c-7.422-20.832-7.869-36.05-1.326-45.232 4.771-6.695 12.958-10.024 24.376-9.924a2.498 2.498 0 0 1 2.467 2.707c-2.182 26.274 3.043 50.746 15.529 72.734 2.363 4.161 1.274 9.372-2.589 12.39-2.004 1.566-3.657 3.181-4.913 4.799-.694.895-.605 1.765-.408 2.336.322.935 1.147 1.673 2.153 1.927a2.499 2.499 0 0 1 1.163 4.184l-.187.188a2.492 2.492 0 0 1-1.774.741zm-35.234-5h29.305a8.034 8.034 0 0 1-.154-.41c-.834-2.422-.402-4.985 1.187-7.032 1.508-1.944 3.455-3.853 5.784-5.673 1.923-1.503 2.466-3.962 1.32-5.981-12.555-22.109-18.056-46.609-16.367-72.864-8.267.382-14.175 2.993-17.585 7.779-5.532 7.764-4.879 21.418 1.94 40.585l11.239 26.627a4.472 4.472 0 0 1-.353 4.15 4.453 4.453 0 0 1-3.603 2.051c-3.112.103-8.723.785-11.337 4.197-1.252 1.634-1.713 3.839-1.376 6.571zm32.312-5.908h.01zM112.258 250.967a2.5 2.5 0 0 1-2.498-2.647 2.596 2.596 0 0 0-.033-.598c-.343-2.003-.82-3.685-1.418-4.999-1.457-3.201-2.195-6.468-2.195-9.709v-30.348a2.5 2.5 0 1 1 5 0v30.348c0 2.522.587 5.092 1.746 7.638.776 1.704 1.38 3.799 1.796 6.227.097.571.129 1.154.095 1.734a2.5 2.5 0 0 1-2.493 2.354zM143.742 250.967a2.5 2.5 0 0 1-2.493-2.353 7.67 7.67 0 0 1 .095-1.733c.416-2.429 1.02-4.524 1.796-6.228 1.159-2.546 1.746-5.116 1.746-7.638v-30.348a2.5 2.5 0 1 1 5 0v30.348c0 3.241-.739 6.508-2.195 9.709-.598 1.313-1.075 2.996-1.418 5a2.636 2.636 0 0 0-.033.596 2.5 2.5 0 0 1-2.349 2.643c-.05.002-.099.004-.149.004zM128 113.47c-7.604 0-16.272-6.77-16.272-12.708 0-7.054 10.187-7.054 16.272-7.054s16.272 0 16.272 7.054c0 5.938-8.668 12.708-16.272 12.708zm0-14.762c-9.317 0-11.272 1.117-11.272 2.054 0 2.408 5.45 7.708 11.272 7.708s11.272-5.3 11.272-7.708c0-.937-1.955-2.054-11.272-2.054z"/><path d="M128 123.799a2.5 2.5 0 0 1-2.5-2.5v-8.679a2.5 2.5 0 1 1 5 0v8.679a2.5 2.5 0 0 1-2.5 2.5zM118.174 98.468a2.5 2.5 0 0 1-2.205-3.675c6.89-12.943.07-26.056 0-26.187a2.501 2.501 0 0 1 4.414-2.35c.335.631 8.126 15.619 0 30.886a2.5 2.5 0 0 1-2.209 1.326zM137.826 98.468a2.5 2.5 0 0 1-2.209-1.326c-8.126-15.267-.335-30.255 0-30.886a2.5 2.5 0 0 1 4.416 2.345c-.09.173-6.842 13.339-.002 26.191a2.501 2.501 0 0 1-2.205 3.676zM96.718 72.943a2.5 2.5 0 0 1-2.5-2.492c-.015-4.605 3.72-8.364 8.325-8.379h.027c4.594 0 8.338 3.729 8.353 8.326a2.5 2.5 0 0 1-2.492 2.508h-.008a2.5 2.5 0 0 1-2.5-2.492 3.356 3.356 0 0 0-3.353-3.341h-.011a3.356 3.356 0 0 0-3.341 3.363 2.5 2.5 0 0 1-2.492 2.508l-.008-.001zM147.578 72.943a2.5 2.5 0 0 1-2.5-2.492c-.015-4.605 3.72-8.364 8.325-8.379h.027c4.594 0 8.338 3.729 8.353 8.326a2.5 2.5 0 0 1-2.492 2.508h-.008a2.5 2.5 0 0 1-2.5-2.492 3.356 3.356 0 0 0-3.353-3.341h-.011a3.356 3.356 0 0 0-3.341 3.363 2.5 2.5 0 0 1-2.492 2.508l-.008-.001zM172.956 37.569a2.5 2.5 0 0 1-2.041-1.057 52.496 52.496 0 0 0-15.518-14.539 2.5 2.5 0 0 1-.05-4.232c2.179-1.407 9.417-6.48 11.08-12.672 1.185-4.409 6.112-6.139 12.557-4.41 8.16 2.191 18.341 10.159 15.427 21.012-2.137 7.958-9.583 13.587-20.966 15.85a2.471 2.471 0 0 1-.489.048zM161.13 19.762a57.351 57.351 0 0 1 12.888 12.519c6.353-1.501 13.647-4.775 15.562-11.906 1.998-7.439-5.917-13.28-11.894-14.886-2.872-.771-6.004-.718-6.431.877-1.562 5.82-6.426 10.529-10.125 13.396zM83.044 37.569a2.53 2.53 0 0 1-.488-.048c-11.383-2.263-18.829-7.892-20.966-15.85-1.3-4.84.011-9.775 3.692-13.895C68.2 4.51 72.587 1.85 77.017.66c6.443-1.73 11.372.001 12.557 4.41 1.663 6.192 8.901 11.265 11.08 12.672a2.501 2.501 0 0 1-.05 4.232 52.496 52.496 0 0 0-15.518 14.539 2.505 2.505 0 0 1-2.042 1.056zM81.683 5.005c-1.04 0-2.225.176-3.37.483-5.978 1.605-13.892 7.446-11.894 14.886 1.915 7.131 9.209 10.405 15.562 11.906a57.373 57.373 0 0 1 12.888-12.519c-3.699-2.868-8.562-7.577-10.125-13.396-.257-.958-1.493-1.36-3.061-1.36zM161.48 114.43a2.5 2.5 0 0 1-1.233-4.677c20.38-11.523 14.533-33.122 14.471-33.339a2.5 2.5 0 1 1 4.811-1.363c.072.255 6.941 25.619-16.821 39.055-.389.22-.812.324-1.228.324zM94.52 114.43c-.417 0-.839-.104-1.228-.324-23.762-13.436-16.893-38.8-16.821-39.055a2.5 2.5 0 0 1 4.812 1.358c-.249.892-5.818 21.873 14.47 33.344a2.5 2.5 0 0 1-1.233 4.677z"/><path d="M158.928 122.427a2.5 2.5 0 0 1-2.123-3.819c2.573-4.141 2.265-9.687-.766-13.801-2.777-3.768-7.364-5.671-11.871-5.157.076.396.104.772.104 1.112 0 5.938-8.668 12.708-16.272 12.708s-16.272-6.77-16.272-12.708c0-.34.028-.716.104-1.112-4.511-.515-9.094 1.389-11.871 5.157-3.031 4.113-3.339 9.66-.766 13.801a2.5 2.5 0 0 1 .033 2.584 2.517 2.517 0 0 1-2.272 1.232c-18.22-.847-30.032-9.629-39.498-29.368a2.503 2.503 0 0 1 1.447-3.447l4.028-1.375c-3.33-2.025-7.306-5.303-9.805-10.284a2.5 2.5 0 0 1 2.227-3.621c-.017 0 2.823-.177 7.552-3.545l-4.053-5.12a2.502 2.502 0 0 1 1.952-4.052c-.01-.001 4.954-.358 11.327-8.608C78.481 27.226 101.377 9.268 128 9.268s49.519 17.958 55.867 43.737c6.373 8.25 11.337 8.607 11.388 8.609.958.003 1.798.552 2.214 1.414.416.863.272 1.886-.322 2.637l-4.053 5.12c4.73 3.368 7.575 3.544 7.607 3.546a2.452 2.452 0 0 1 2.094 1.19c.454.737.466 1.657.078 2.43-2.5 4.981-6.476 8.258-9.805 10.284l4.028 1.375a2.503 2.503 0 0 1 1.447 3.447c-9.466 19.738-21.278 28.521-39.498 29.368l-.117.002zm-13.311-27.858c5.576 0 11.01 2.607 14.447 7.271 3.289 4.463 4.262 10.167 2.824 15.238 13.275-1.71 22.239-8.844 29.89-23.659l-7.153-2.441a2.5 2.5 0 0 1 .083-4.759c.071-.022 6.728-2.132 10.997-7.785-2.172-.81-5.152-2.349-8.73-5.274a2.5 2.5 0 0 1-.378-3.487l3.31-4.182c-2.875-1.281-6.922-4.023-11.342-9.883a2.509 2.509 0 0 1-.437-.93c-5.63-23.793-26.654-40.41-51.128-40.41S82.502 30.885 76.873 54.679c-.08.337-.229.653-.437.93-4.42 5.86-8.467 8.602-11.342 9.883l3.31 4.182a2.5 2.5 0 0 1-.378 3.487c-3.578 2.925-6.558 4.464-8.73 5.274 4.27 5.653 10.927 7.763 11.003 7.787 1.035.319 1.75 1.27 1.766 2.353s-.664 2.054-1.689 2.404l-7.153 2.441c7.65 14.815 16.614 21.949 29.89 23.659-1.438-5.072-.465-10.774 2.824-15.238 4.73-6.42 13.244-8.942 20.703-6.135a2.5 2.5 0 0 1 .528 4.405c-.439.3-.439.47-.439.651 0 2.408 5.45 7.708 11.272 7.708s11.272-5.3 11.272-7.708c0-.181 0-.351-.44-.651a2.5 2.5 0 0 1 .528-4.405 17.732 17.732 0 0 1 6.256-1.137z"/><path d="M100.894 28.26a2.502 2.502 0 0 1-1.773-4.264l5.906-5.93a32.212 32.212 0 0 1 12.458-7.806 2.55 2.55 0 0 1 .375-.097 57.952 57.952 0 0 1 20.864.115c.127.024.252.058.374.101a32.2 32.2 0 0 1 12.674 8.239l5.148 5.421a2.5 2.5 0 0 1-2.274 4.179c-.277-.052-.459-.123-.946-.313-7.793-3.041-28.447-9.108-51.887.18a2.51 2.51 0 0 1-.919.175zm26.845-10.124a78.922 78.922 0 0 1 18.693 2.265 27.161 27.161 0 0 0-8.827-5.247 52.988 52.988 0 0 0-18.676-.104 27.19 27.19 0 0 0-8.916 5.192 75.221 75.221 0 0 1 17.726-2.106z"/><path d="M105.047 40.804a2.5 2.5 0 0 1-1.599-4.423l5.001-4.162c11.102-9.239 28.95-9.062 39.787.396l4.36 3.805a2.498 2.498 0 0 1-2.026 4.354c-.246-.038-.414-.093-.865-.239-6.575-2.13-24.014-6.382-43.878.143-.257.085-.52.126-.78.126zm22.755-8.603c4.547 0 8.689.396 12.278.957-7.232-3.566-16.436-3.612-23.727-.103a76.648 76.648 0 0 1 11.449-.854zM53.521 227.644a2.5 2.5 0 0 1-2.302-1.528l-3.731-8.841a2.5 2.5 0 0 1 2.87-3.408c7.818 1.816 14.414 2.448 18.571 2.658a3.432 3.432 0 0 1 3.229 2.862 3.43 3.43 0 0 1-2.085 3.772h-.001l-3.855 1.586c-3.881 1.597-8.091 2.57-12.511 2.891a1.936 1.936 0 0 1-.185.008zm.431-7.912 1.161 2.75a35.71 35.71 0 0 0 6.924-1.519 114.799 114.799 0 0 1-8.085-1.231zm15.167 1.116h.01zM45.417 207.878a2.5 2.5 0 0 1-2.372-1.71 124.513 124.513 0 0 1-2.424-8.132 2.5 2.5 0 0 1 3.123-3.025c6.576 1.925 12.135 2.828 15.641 3.247a3.354 3.354 0 0 1 2.957 3.007 3.35 3.35 0 0 1-2.288 3.538l-3.627 1.21c-3.448 1.15-7.133 1.778-10.953 1.865h-.057zm1.223-6.906c.18.596.368 1.202.563 1.816a32.63 32.63 0 0 0 4.588-.675 105.389 105.389 0 0 1-5.151-1.141zM58.509 188.632c-6.227 0-12.631-1.259-18.774-3.714a2.499 2.499 0 0 1-1.57-2.222c-.194-4.867.343-9.195 1.595-12.866a2.5 2.5 0 0 1 3.689-1.315c9.988 6.225 19.002 9.981 24.806 12.036a2.5 2.5 0 0 1 1.65 2.078c.09.807.191 1.617.297 2.429a2.5 2.5 0 0 1-2.209 2.811l-4.655.504a44.728 44.728 0 0 1-4.829.259zm-15.383-7.773c6.214 2.246 12.653 3.151 18.769 2.631a135.743 135.743 0 0 1-18.209-8.984c-.377 1.936-.564 4.06-.56 6.353zM202.479 227.644c-.061 0-.121-.002-.182-.006-4.42-.321-8.63-1.294-12.511-2.891l-3.855-1.586a3.43 3.43 0 0 1-2.087-3.772 3.432 3.432 0 0 1 3.229-2.862c4.157-.21 10.752-.841 18.571-2.658a2.501 2.501 0 0 1 2.87 3.408l-3.731 8.841a2.506 2.506 0 0 1-2.304 1.526zm-8.515-6.681a35.842 35.842 0 0 0 6.924 1.519l1.161-2.75c-2.699.509-5.411.922-8.085 1.231zm-6.64.556c.001 0 .001 0 0 0zM210.583 207.878h-.057c-3.82-.087-7.505-.714-10.953-1.865l-3.628-1.21a3.35 3.35 0 0 1-2.287-3.537 3.353 3.353 0 0 1 2.957-3.007c3.506-.418 9.065-1.321 15.641-3.247a2.5 2.5 0 0 1 3.123 3.025 124.513 124.513 0 0 1-2.424 8.132 2.504 2.504 0 0 1-2.372 1.709zm-6.375-5.765c1.49.33 3.022.556 4.588.675.195-.614.383-1.22.563-1.816-1.831.454-3.557.83-5.151 1.141zm-7.298-1.373h.01zM197.491 188.632a44.71 44.71 0 0 1-4.828-.258l-4.655-.504a2.501 2.501 0 0 1-2.209-2.811c.106-.812.207-1.623.297-2.429a2.501 2.501 0 0 1 1.65-2.078c5.803-2.055 14.816-5.81 24.806-12.036a2.5 2.5 0 0 1 3.689 1.315c1.252 3.671 1.789 8 1.595 12.866a2.5 2.5 0 0 1-1.57 2.222c-6.144 2.454-12.549 3.713-18.775 3.713zm-3.386-5.142c6.116.52 12.555-.386 18.768-2.631.005-2.293-.183-4.417-.559-6.354a135.58 135.58 0 0 1-18.209 8.985z"/><path d="M109.74 55.11a2.5 2.5 0 0 1-1.722-4.314l3.979-3.776c9.086-8.623 23.692-8.458 32.559.366l3.468 3.452a2.501 2.501 0 0 1-2.199 4.234c-.256-.045-.436-.112-.794-.244-5.162-1.905-18.85-5.708-34.415.124a2.526 2.526 0 0 1-.876.158zm18.092-8.266c2.949 0 5.688.235 8.154.596-4.884-2.245-10.688-2.281-15.606-.087a54.54 54.54 0 0 1 7.452-.509zM148.419 109.695a2.5 2.5 0 0 1-.79-4.872l9.764-3.254a2.5 2.5 0 0 1 1.581 4.743l-9.764 3.254a2.481 2.481 0 0 1-.791.129zM159.271 119.459c-.092 0-.185-.005-.279-.015l-9.764-1.085a2.5 2.5 0 0 1 .552-4.97l9.764 1.085a2.5 2.5 0 0 1-.273 4.985zM108.279 109.695a2.51 2.51 0 0 1-.791-.129l-9.764-3.254a2.5 2.5 0 1 1 1.581-4.743l9.764 3.254a2.5 2.5 0 0 1-.79 4.872zM97.426 119.459a2.5 2.5 0 0 1-.273-4.985l9.764-1.085a2.5 2.5 0 1 1 .552 4.97l-9.764 1.085c-.094.01-.187.015-.279.015z"/><path d="M175.79 256h-26.44c-3.175 0-5.943-1.765-7.273-4.354a49.237 49.237 0 0 1-28.155 0c-1.331 2.588-4.1 4.353-7.272 4.353H80.21c-3.183 0-6.008-1.73-7.372-4.515-1.292-2.639-.986-5.602.818-7.926 1.509-1.944 3.455-3.853 5.784-5.673 1.923-1.503 2.466-3.962 1.32-5.981-26.873-47.326-15.414-94.865-6.192-118.99a2.503 2.503 0 0 1 3.715-1.193c5.283 3.495 11.467 5.362 18.905 5.708a2.499 2.499 0 0 1 2.008 1.18l.058.094c.095.153.188.307.293.456a12.052 12.052 0 0 0 7.343 4.862 2.498 2.498 0 0 1 1.742 1.39c3.495 7.517 11.103 12.374 19.381 12.374 7.162 0 13.825-3.636 17.754-9.484a2.5 2.5 0 0 1 1.767-4.039 12.047 12.047 0 0 0 8.919-5.102c.1-.141.188-.287.278-.433l.075-.121a2.5 2.5 0 0 1 2.007-1.176c7.436-.345 13.619-2.212 18.902-5.707a2.503 2.503 0 0 1 3.715 1.192c9.224 24.124 20.685 71.661-6.19 118.99-1.146 2.019-.604 4.479 1.319 5.98 2.33 1.821 4.275 3.729 5.785 5.674 1.804 2.324 2.11 5.287.818 7.926-1.364 2.785-4.189 4.515-7.372 4.515zm-32.044-10.044a2.501 2.501 0 0 1 2.495 2.36c.084 1.505 1.45 2.684 3.11 2.684h26.44c1.505 0 2.475-.885 2.881-1.714.258-.528.566-1.575-.277-2.661-1.256-1.619-2.909-3.233-4.914-4.8-3.863-3.018-4.951-8.229-2.589-12.39 24.861-43.782 15.58-87.884 6.91-111.93-5.104 2.794-10.863 4.389-17.486 4.845a17.045 17.045 0 0 1-8.923 6.257c-4.521 8.65-13.57 14.177-23.379 14.177-9.812 0-18.859-5.527-23.379-14.18a17.033 17.033 0 0 1-8.949-6.253c-6.624-.457-12.384-2.051-17.488-4.847-8.668 24.049-17.947 68.152 6.911 111.931 2.363 4.161 1.274 9.372-2.589 12.39-2.004 1.566-3.657 3.181-4.913 4.799-.843 1.086-.536 2.134-.277 2.662.406.829 1.375 1.714 2.881 1.714h26.44c1.657 0 3.023-1.176 3.11-2.678a2.494 2.494 0 0 1 1.117-1.94 2.493 2.493 0 0 1 2.223-.268 44.25 44.25 0 0 0 29.59.074c.3-.139.632-.221.983-.231l.072-.001z"/><path d="M77.069 216.971c-.657 0-1.318-.015-1.983-.046a2.502 2.502 0 0 1-2.213-1.586 126.626 126.626 0 0 1-3.292-9.484 2.5 2.5 0 0 1 3.063-3.131c8.913 2.481 16.5 3.291 21.295 3.533a3.354 3.354 0 0 1 3.155 2.797 3.35 3.35 0 0 1-2.04 3.686l-3.537 1.456c-4.48 1.844-9.333 2.775-14.448 2.775zm-.134-5.001h.13c3.341 0 6.542-.451 9.567-1.348-3.2-.4-6.876-1.014-10.885-1.947a124.5 124.5 0 0 0 1.188 3.295zM77.944 194.53c-3.285 0-6.634-.409-9.965-1.227a2.501 2.501 0 0 1-1.866-1.993 131.076 131.076 0 0 1-1.38-10.169 2.499 2.499 0 0 1 3.47-2.538c9.601 4.101 18.053 5.964 23.454 6.806a3.352 3.352 0 0 1 2.847 3.11 3.351 3.351 0 0 1-2.412 3.454l-3.667 1.08c-3.343.984-6.874 1.477-10.481 1.477zm-7.185-5.728c4.486.904 8.961.966 13.165.19a106.324 106.324 0 0 1-13.749-4.203c.175 1.352.369 2.691.584 4.013zM77.825 170.042c-3.912 0-7.91-.577-11.895-1.733a2.5 2.5 0 0 1-1.803-2.441c.052-3.241.214-6.5.481-9.687.066-.787.5-1.496 1.17-1.914a2.504 2.504 0 0 1 2.233-.205c10.19 3.994 19.109 5.601 24.797 6.246 1.581.179 2.804 1.409 2.974 2.989s-.762 3.04-2.266 3.551l-3.62 1.231c-3.842 1.309-7.907 1.963-12.071 1.963zm-8.654-6.047c5.439 1.291 10.988 1.361 16.053.215a106.599 106.599 0 0 1-15.871-4.307c-.08 1.358-.141 2.725-.182 4.092zM78.081 145.208c-3.159 0-6.377-.377-9.579-1.133a2.501 2.501 0 0 1-1.884-2.888 157.549 157.549 0 0 1 1.882-8.751 2.497 2.497 0 0 1 3.327-1.741c8.253 3.176 15.406 4.69 19.953 5.4a3.355 3.355 0 0 1 2.846 3.112 3.35 3.35 0 0 1-2.413 3.452l-3.67 1.078c-3.334.981-6.86 1.471-10.462 1.471zm-6.079-5.521c4.108.701 8.192.695 12.045-.013a106.428 106.428 0 0 1-11.331-3.321 151.986 151.986 0 0 0-.714 3.334zM178.176 170.042c-4.165 0-8.229-.654-12.072-1.962l-3.621-1.232a3.35 3.35 0 0 1-2.266-3.551 3.352 3.352 0 0 1 2.974-2.989c5.688-.645 14.608-2.252 24.798-6.246a2.498 2.498 0 0 1 3.403 2.12c.267 3.194.429 6.454.481 9.687a2.5 2.5 0 0 1-1.803 2.441c-3.984 1.155-7.983 1.732-11.894 1.732zm-7.4-5.833c5.062 1.146 10.613 1.076 16.054-.215a139.03 139.03 0 0 0-.183-4.092 106.445 106.445 0 0 1-15.871 4.307zM177.919 145.208c-3.603 0-7.127-.491-10.461-1.47l-3.67-1.078a3.35 3.35 0 0 1-2.413-3.452 3.355 3.355 0 0 1 2.845-3.112c4.547-.711 11.699-2.225 19.953-5.401a2.5 2.5 0 0 1 3.327 1.741 157.452 157.452 0 0 1 1.882 8.75 2.5 2.5 0 0 1-1.884 2.888 41.671 41.671 0 0 1-9.579 1.134zm-5.966-5.534c3.853.708 7.938.713 12.045.013-.223-1.102-.46-2.21-.714-3.333a106.47 106.47 0 0 1-11.331 3.32zM178.057 194.53c-3.608 0-7.138-.493-10.482-1.477l-3.669-1.081a3.35 3.35 0 0 1-2.411-3.453 3.352 3.352 0 0 1 2.847-3.11c5.4-.841 13.854-2.705 23.455-6.806a2.499 2.499 0 0 1 3.47 2.538 130.839 130.839 0 0 1-1.38 10.17 2.5 2.5 0 0 1-1.865 1.992 41.824 41.824 0 0 1-9.965 1.227zm-5.981-5.538c4.204.774 8.679.712 13.165-.19.215-1.322.41-2.662.584-4.013a106.324 106.324 0 0 1-13.749 4.203zm-7.348-1.114h.01zM178.931 216.971c-5.115 0-9.967-.931-14.45-2.776l-3.537-1.456a3.353 3.353 0 0 1-2.04-3.686 3.353 3.353 0 0 1 3.155-2.797c4.796-.242 12.383-1.052 21.295-3.533a2.498 2.498 0 0 1 3.064 3.131 126.264 126.264 0 0 1-3.292 9.485 2.501 2.501 0 0 1-2.212 1.586 43.97 43.97 0 0 1-1.983.046zm-9.563-6.348a32.932 32.932 0 0 0 9.697 1.347 119.83 119.83 0 0 0 1.188-3.295 106.02 106.02 0 0 1-10.885 1.948zm-7.181-1.87h.01zM211.896 203.722a2.498 2.498 0 0 1-2.397-3.21c2.868-9.677 3.913-17.808 3.106-24.165a2.5 2.5 0 0 1 .379-1.67 25.08 25.08 0 0 0 1.948-3.603c5.039-11.566-.851-17.034-7.086-22.823-.87-.807-1.725-1.601-2.53-2.395-10.452-10.306-14.652-22.165-11.825-33.392 3.376-13.411 16.049-24.247 34.767-29.731 3.686-1.082 7.296-.271 9.906 2.221 2.855 2.726 4.137 7.178 3.188 11.079-.884 3.634-3.542 6.349-7.292 7.447-7.335 2.149-16.835 6.79-19.467 12.792-1.077 2.457-.941 4.984.416 7.728 1.471 2.974 4.236 5.563 7.437 8.562 4.965 4.651 10.593 9.923 13.804 18.728 5.459 14.968-.901 30.355-8.674 39.764-3.776 4.572-8.471 8.591-14.351 12.286a2.503 2.503 0 0 1-1.329.382zm5.771-27.103c.535 5.298-.011 11.55-1.625 18.658 2.956-2.312 5.495-4.763 7.68-7.408 8.659-10.482 11.733-24.168 7.831-34.866-2.802-7.684-7.968-12.523-12.525-16.792-3.408-3.192-6.627-6.208-8.5-9.994-2.024-4.091-2.197-8.113-.514-11.952 4.177-9.528 18.386-14.336 22.641-15.583 2.586-.758 3.515-2.501 3.838-3.831.532-2.188-.201-4.771-1.782-6.28-1.32-1.261-3.067-1.619-5.047-1.04-16.725 4.9-28.435 14.678-31.324 26.154-2.411 9.576 1.215 19.469 10.487 28.611.771.76 1.588 1.519 2.421 2.292 6.213 5.769 14.723 13.668 8.269 28.484a29.465 29.465 0 0 1-1.85 3.547z"/><path d="M211.653 119.724c-.105 0-.212-.006-.319-.02-5.613-.716-11.112-2.536-16.344-5.409a2.5 2.5 0 0 1-1.196-2.894c1.006-3.436 2.672-6.76 4.954-9.882a2.503 2.503 0 0 1 3.516-.527 117.595 117.595 0 0 0 13.408 8.684 2.502 2.502 0 0 1 .708 3.787c-1.185 1.422-1.957 2.877-2.295 4.327a2.499 2.499 0 0 1-2.432 1.934zm-12.405-8.85c3.474 1.703 7.058 2.895 10.698 3.557.252-.592.548-1.178.888-1.756a123 123 0 0 1-9.442-6.125 26.861 26.861 0 0 0-2.144 4.324zM206.603 146.089a2.501 2.501 0 0 1-1.777-.741c-2.745-2.773-5.054-5.647-6.862-8.542a2.5 2.5 0 0 1 1.084-3.599 260.74 260.74 0 0 0 14.552-7.182 2.498 2.498 0 0 1 3.146.667c1.539 1.97 3.601 3.904 5.784 5.951l.97.912a2.501 2.501 0 0 1-.341 3.909c-4.797 3.155-10.029 5.986-15.55 8.415-.323.141-.666.21-1.006.21zm-2.797-9.574a46.27 46.27 0 0 0 3.38 4.071 102.057 102.057 0 0 0 10.54-5.599c-1.264-1.199-2.469-2.38-3.565-3.604a267.194 267.194 0 0 1-10.355 5.132zM217.952 172.729a2.499 2.499 0 0 1-2.35-3.35c1.454-4.02 1.614-7.519.49-10.695a2.499 2.499 0 0 1 2.246-3.331 142.247 142.247 0 0 0 16.297-1.666 2.504 2.504 0 0 1 2.843 1.943c.64 2.979.885 6.057.729 9.146a2.498 2.498 0 0 1-1.336 2.088c-5.672 2.973-11.924 4.938-18.581 5.842a2.594 2.594 0 0 1-.338.023zm3.66-12.549c.353 2.208.291 4.504-.186 6.917 4.167-.868 8.127-2.209 11.825-4.007a30.35 30.35 0 0 0-.261-4.096c-3.755.541-7.564.937-11.378 1.186zM223.133 194.754c-.232 0-.466-.032-.695-.099a61.262 61.262 0 0 1-8.823-3.312 2.5 2.5 0 0 1-1.415-2.643c.714-4.683.85-8.839.404-12.354a2.5 2.5 0 0 1 .385-1.679 2.502 2.502 0 0 1 3.079-1.053 140.658 140.658 0 0 0 15.654 5.2 2.498 2.498 0 0 1 1.574 3.56 48.638 48.638 0 0 1-5.72 8.677 50.464 50.464 0 0 1-2.646 2.94 2.497 2.497 0 0 1-1.797.763zm-5.727-7.193a56.696 56.696 0 0 0 4.971 1.85c.487-.533.932-1.043 1.344-1.542a43.45 43.45 0 0 0 3.619-5.089 146.695 146.695 0 0 1-9.491-3.127c.056 2.452-.093 5.096-.443 7.908zM226.253 106.201a2.5 2.5 0 0 1-2.183-1.279l-8.092-14.45a2.5 2.5 0 0 1 1.096-3.475c3.485-1.678 7.248-3.113 11.182-4.266 3.686-1.082 7.296-.271 9.906 2.221 2.855 2.726 4.137 7.178 3.188 11.079-.884 3.634-3.542 6.349-7.292 7.447a54.228 54.228 0 0 0-6.787 2.503c-.329.149-.676.22-1.018.22zm-4.585-15.802 5.671 10.126a59.436 59.436 0 0 1 5.315-1.844c2.587-.758 3.516-2.501 3.839-3.831.532-2.188-.201-4.771-1.782-6.28-1.32-1.26-3.067-1.619-5.047-1.04a70.153 70.153 0 0 0-7.996 2.869zm7.292-5.268h.01zM109.366 129.312c-5.428 0-10.624-2.61-13.908-7.276-4.209-5.98-4.017-14.096.478-20.195 4.73-6.42 13.244-8.942 20.703-6.135a2.5 2.5 0 0 1 .528 4.405c-.439.3-.439.47-.439.651 0 2.408 5.45 7.708 11.272 7.708s11.272-5.3 11.272-7.708c0-.181 0-.352-.439-.651a2.5 2.5 0 0 1 .529-4.405c7.459-2.807 15.973-.285 20.703 6.135 4.494 6.1 4.686 14.216.478 20.196-4.377 6.217-12.149 8.785-19.342 6.388l-13.2-4.4-13.2 4.4a17.194 17.194 0 0 1-5.435.887zm1.005-29.745c-4.018 0-7.933 1.878-10.409 5.24-3.217 4.366-3.384 10.133-.415 14.352 3.096 4.399 8.591 6.215 13.672 4.523l13.99-4.664a2.5 2.5 0 0 1 1.581 0l13.99 4.664c5.082 1.693 10.576-.124 13.672-4.522 2.969-4.218 2.803-9.986-.414-14.352-2.777-3.768-7.364-5.671-11.872-5.157.076.396.104.772.104 1.112 0 5.938-8.668 12.708-16.272 12.708s-16.272-6.77-16.272-12.708c0-.34.028-.716.104-1.112a12.508 12.508 0 0 0-1.459-.084z"/><path d="M128.013 142.785c-10.233 0-19.627-6.006-23.933-15.3a2.5 2.5 0 0 1 2.82-3.49c2.15.486 4.383.378 6.462-.314l13.99-4.664a2.5 2.5 0 0 1 1.581 0l13.991 4.664c1.99.663 4.144.787 6.223.361a2.502 2.502 0 0 1 2.769 3.505c-4.316 9.257-13.699 15.238-23.903 15.238zm-17.084-13.544c3.99 5.295 10.311 8.544 17.084 8.544 6.78 0 13.112-3.259 17.102-8.568a16.914 16.914 0 0 1-3.771-.792l-13.2-4.4-13.2 4.4a17.036 17.036 0 0 1-4.015.816z"/><path d="M128 221c-15.938 0-28.422-22.402-28.422-51 0-14.575 3.425-28.452 9.396-38.073a2.502 2.502 0 0 1 3.897-.445c4.04 4.064 9.418 6.302 15.143 6.302 5.718 0 11.09-2.232 15.129-6.286a2.497 2.497 0 0 1 3.895.447c5.964 9.619 9.385 23.489 9.385 38.055-.001 28.598-12.485 51-28.423 51zm-16.262-83.84c-4.573 8.686-7.16 20.454-7.16 32.84 0 24.935 10.726 46 23.422 46s23.422-21.065 23.422-46c0-12.378-2.584-24.141-7.152-32.824-4.621 3.637-10.287 5.609-16.257 5.609-5.979 0-11.651-1.978-16.275-5.625zM214.766 256h-37.318a2.501 2.501 0 0 1-1.775-.739l-.187-.188a2.501 2.501 0 0 1 1.163-4.184c1.006-.254 1.832-.992 2.153-1.927.197-.572.286-1.442-.408-2.336-1.257-1.62-2.911-3.235-4.914-4.8-1.75-1.367-2.966-3.202-3.516-5.307a2.5 2.5 0 0 1 1.399-2.915c2.132-.952 6.423-1.962 11.219 1.962 4.643 3.799 6.39 2.942 10.218 1.062 1.425-.7 3.041-1.494 4.989-2.102a2.501 2.501 0 0 1 2.609.721c4.045.167 11.094 1.207 14.876 6.143 2.489 3.249 3.136 7.515 1.925 12.682a2.499 2.499 0 0 1-2.433 1.928zm-31.39-5h29.305c.336-2.732-.124-4.937-1.375-6.57-2.614-3.412-8.225-4.094-11.337-4.197a4.406 4.406 0 0 1-1.915-.505c-1.083.421-2.078.91-3.048 1.387-4.157 2.043-8.458 4.154-15.588-1.68-.982-.804-1.935-1.322-2.869-1.558a.07.07 0 0 1 .01.008c2.329 1.819 4.275 3.729 5.786 5.674 1.588 2.046 2.021 4.609 1.186 7.031-.049.139-.1.275-.155.41zM78.553 256H41.234a2.5 2.5 0 0 1-2.434-1.929c-1.211-5.167-.564-9.434 1.925-12.682 3.782-4.937 10.831-5.977 14.876-6.143a2.498 2.498 0 0 1 2.609-.721c1.948.608 3.563 1.402 4.989 2.102 3.828 1.881 5.574 2.738 10.218-1.062 4.796-3.924 9.087-2.914 11.219-1.962a2.501 2.501 0 0 1 1.399 2.915c-.55 2.105-1.766 3.94-3.517 5.307-2.002 1.565-3.656 3.18-4.913 4.799-.695.895-.606 1.765-.409 2.337.322.935 1.147 1.673 2.153 1.927a2.499 2.499 0 0 1 1.163 4.184l-.187.188a2.487 2.487 0 0 1-1.772.74zm-35.234-5h29.305a8.034 8.034 0 0 1-.154-.41c-.834-2.422-.402-4.985 1.187-7.032 1.51-1.945 3.456-3.854 5.785-5.674a.07.07 0 0 0 .01-.008c-.934.236-1.887.754-2.869 1.558-7.131 5.834-11.431 3.722-15.588 1.68-.971-.477-1.965-.965-3.048-1.387a4.416 4.416 0 0 1-1.915.505c-3.113.103-8.724.785-11.337 4.197-1.252 1.634-1.713 3.839-1.376 6.571z"/><path d="M106.65 256H80.21c-3.183 0-6.008-1.73-7.372-4.515-1.292-2.639-.986-5.602.818-7.926 1.509-1.944 3.455-3.853 5.784-5.673 1.072-.838 1.74-2.003 1.881-3.282a2.5 2.5 0 0 1 2.428-2.226c3.96-.094 7.521 1 10.285 3.15 3.388 2.635 5.28 2.074 8.412 1.146 1.972-.584 4.207-1.248 6.995-1.084a2.5 2.5 0 0 1 2.272 1.855c.18.678.561 1.672.964 2.724 1.043 2.722 2.227 5.806 2.073 8.445-.239 4.141-3.798 7.386-8.1 7.386zm-20.902-18.547c-.629 1.697-1.733 3.204-3.228 4.372-2.004 1.567-3.658 3.182-4.914 4.8-.843 1.086-.536 2.134-.277 2.662.406.829 1.375 1.714 2.881 1.714h26.44c1.657 0 3.023-1.176 3.11-2.678.091-1.563-.973-4.338-1.75-6.364-.175-.457-.346-.903-.505-1.333-1.252.136-2.421.482-3.638.843-3.51 1.04-7.488 2.218-12.902-1.994-1.442-1.123-3.192-1.8-5.217-2.022zM175.79 256h-26.44c-4.311 0-7.87-3.252-8.102-7.404l.049-.003c-.262-2.913 1.815-7.881 1.842-7.94a20.529 20.529 0 0 0 1.123-3.119 2.5 2.5 0 0 1 2.06-1.822c3.366-.48 6.064.318 8.231.961 3.134.928 5.024 1.488 8.412-1.146 2.52-1.96 5.595-3.017 9.14-3.143a2.515 2.515 0 0 1 2.573 2.223c.142 1.277.81 2.441 1.88 3.278 2.33 1.821 4.276 3.729 5.785 5.674 1.805 2.325 2.11 5.288.818 7.926-1.363 2.785-4.188 4.515-7.371 4.515zm-29.555-7.759.005.075c.084 1.505 1.45 2.684 3.11 2.684h26.44c1.505 0 2.475-.885 2.881-1.714.258-.528.566-1.575-.277-2.661-1.256-1.618-2.909-3.233-4.914-4.8-1.452-1.135-2.536-2.59-3.173-4.228-1.633.31-3.064.938-4.272 1.877-5.415 4.211-9.393 3.033-12.902 1.994-1.508-.447-2.952-.875-4.578-.901a25.02 25.02 0 0 1-.865 2.158c-1.066 2.343-1.399 4.733-1.455 5.516z"/></svg>