<?xml version="1.0" standalone="no"?>
<!DOCTYPE svg PUBLIC "-//W3C//DTD SVG 20010904//EN"
 "http://www.w3.org/TR/2001/REC-SVG-20010904/DTD/svg10.dtd">
<svg version="1.0" xmlns="http://www.w3.org/2000/svg"
 width="512.000000pt" height="512.000000pt" viewBox="0 0 512.000000 512.000000"
 preserveAspectRatio="xMidYMid meet">
<metadata>
Created by potrace 1.14, written by Peter Selinger 2001-2017
</metadata>
<g transform="translate(0.000000,512.000000) scale(0.100000,-0.100000)"
fill="#000000" stroke="none">
<path d="M2458 4382 c-70 -26 -130 -72 -169 -133 -48 -73 -250 -392 -270 -426
-9 -16 -73 -116 -141 -224 -69 -107 -132 -216 -141 -242 -23 -67 -15 -155 20
-219 53 -97 156 -156 281 -161 l63 -2 0 -290 0 -290 -148 -1 -148 -2 0 287 c0
275 -1 288 -22 327 -24 44 -89 108 -121 118 -19 6 -21 17 -24 129 -3 110 -5
125 -27 156 -40 55 -88 71 -224 71 -134 0 -177 -14 -219 -72 -20 -29 -24 -48
-28 -148 l-5 -115 -80 0 -80 1 -1 90 c-1 104 -8 137 -36 176 -38 54 -84 68
-216 68 -105 0 -124 -3 -162 -23 -69 -36 -90 -86 -90 -212 l0 -102 -29 -1
c-72 -2 -160 -67 -197 -147 -23 -49 -24 -56 -21 -320 l2 -270 26 -47 27 -46
-29 -57 -28 -56 0 -264 0 -264 29 -57 29 -58 -27 -45 -27 -46 0 -280 c0 -243
2 -285 17 -315 24 -50 68 -94 119 -121 42 -22 55 -24 294 -26 263 -3 325 3
371 39 l25 20 52 -28 52 -29 349 -2 c390 -2 399 0 469 66 65 61 80 101 84 221
6 239 20 309 81 398 78 115 172 183 302 217 83 22 211 15 292 -15 136 -51 246
-160 299 -299 18 -46 23 -86 29 -231 5 -150 9 -181 27 -215 27 -51 67 -91 118
-119 39 -20 51 -21 395 -21 l355 0 57 29 c52 26 60 28 75 15 51 -42 66 -44
352 -44 246 0 280 2 312 18 53 26 99 75 126 134 24 52 24 55 21 320 l-3 268
-26 47 -27 46 30 59 29 58 -3 270 -3 270 -27 49 c-28 48 -28 48 -9 75 38 53
42 96 39 366 -3 227 -5 265 -21 296 -37 75 -104 123 -199 143 l-28 6 0 99 c0
123 -22 174 -90 209 -41 21 -56 23 -176 20 -126 -3 -132 -4 -167 -31 -58 -44
-69 -76 -71 -196 l-1 -106 -80 0 -80 0 -1 92 c-2 106 -8 136 -36 175 -38 54
-83 68 -218 68 -137 0 -180 -14 -222 -72 -21 -30 -23 -46 -26 -156 -4 -120 -4
-123 -28 -132 -13 -5 -44 -30 -69 -54 -71 -71 -77 -107 -73 -415 l3 -258 -150
-1 -150 0 0 292 0 293 40 -2 c139 -4 266 66 317 175 26 55 32 156 13 210 -22
63 -571 925 -612 961 -54 47 -115 70 -196 75 -52 3 -85 -1 -119 -14z"/>
</g>
</svg>
