<svg id="Layer_4" height="512" viewBox="0 0 512 512" width="512" xmlns="http://www.w3.org/2000/svg" data-name="Layer 4"><path d="m440 96h-185.485l-246.088 408h199.573z" fill="#e84700"/><path d="m361.74 66.444-21.856 67.68a40.959 40.959 0 0 1 -50.809 27.816l-36.551-10.689a40.959 40.959 0 0 1 -27.816-50.809l15.449-52.828z" fill="#ffc880"/><path d="m282.544 187.691-37.677-12.674 6.737-24.035 38.392 11.227z" fill="#ffc880"/><path d="m121.07 251.52s-9.07-27.52-25.07-19.52-40 48-40 48h-48s32 24 40 32z" fill="#fcb765"/><path d="m152 272 23.98 23.568 107.498 31.432s-35.478 57-83.478 41l-83.672-41z" fill="#4ba013"/><path d="m160 176s-40 16-56-8l-16-24-24 24s42.14 70.234 114.14 38.234" fill="#ffc880"/><path d="m368 216-153.846-50.965-54.154 10.965 24 40h15.249l-23.269 79.568 107.498 31.436 24.626-85.636 19.896 6.632z" fill="#56bc13"/><path d="m339.536 238.772s44.464 41.228 76.464 17.228 40-40 40-40l-24-16-32 32s-10.667 10.133-34.667-13.867" fill="#ffc880"/><path d="m152 272s-24-32-40-16-48 56-48 56h-48l48 40 56-64 12.791 12" fill="#ffc880"/><path d="m234.391 25.574 5.767 22.04 84.462 24.7 23.98 32.017 26.941-25.461 3.729-12.751a18.715 18.715 0 0 0 -12.709-23.219l-115.3-33.72a13.513 13.513 0 0 0 -16.87 16.394z" fill="#f4bb03"/><path d="m248.186 163.174a95.146 95.146 0 0 0 40.42 3.786l1.39-4.751-38.396-11.228z" fill="#ea9734"/><circle cx="305.243" cy="95.82" r="12" transform="matrix(.281 -.96 .96 .281 127.596 361.896)"/><circle cx="259.172" cy="82.347" r="12" transform="matrix(.281 -.96 .96 .281 107.389 307.986)"/><path d="m270.51 114.836-15.357-4.491a24 24 0 1 0 46.071 13.472l-15.357-4.49a8 8 0 0 1 -15.356-4.49z"/><path d="m511.9 502.761-64-408a7.973 7.973 0 0 0 -7.9-6.761h-30.072l20.982-35.969-13.82-8.062-25.685 44.031h-13.878l3.509-3.315a7.993 7.993 0 0 0 2.185-3.568l3.729-12.752a26.748 26.748 0 0 0 -18.144-33.14l-115.306-33.725a21.512 21.512 0 0 0 -26.849 26.1l5.206 19.9-14.828 50.7a49.031 49.031 0 0 0 24.958 57.452l-2.611 9.315-22.708-7.522a7.989 7.989 0 0 0 -4.1-.247l-54.153 10.965a7.989 7.989 0 0 0 -1.378.426l-.005-.013c-.342.136-34.311 13.082-46.373-5.01l-16-24a8 8 0 0 0 -12.313-1.22l-24 24a8 8 0 0 0 -1.2 9.773 121.7 121.7 0 0 0 32.369 33.573c12.516 8.687 30.078 16.885 51.778 16.885a95.146 95.146 0 0 0 33.107-6.197l-24.93 40.891c-5.877-5.6-14.045-11.736-22.818-13.339-2.8-6.208-8.49-16.153-17.442-19.878a19.674 19.674 0 0 0 -16.789.79c-7.9 3.951-17.354 13.585-28.892 29.45-5.151 7.085-9.461 13.706-11.984 17.706h-43.545a8 8 0 0 0 -4.8 14.4c4.822 3.616 14.28 10.814 22.859 17.6h-10.059a8 8 0 0 0 -5.121 14.146l48 40a8 8 0 0 0 11.142-.878l50.545-57.768 2.01 1.885-120.976 198.451a8 8 0 0 0 6.827 12.164h199.573a8 8 0 0 0 6.941-4.022l141.736-247.309c1.8 1 3.671 1.982 5.609 2.919a87.117 87.117 0 0 0 14.322 5.5l31.462 235.97a8 8 0 0 0 7.93 6.942h88a8 8 0 0 0 7.9-9.239zm-42.351-166.761h-67.878l-5.333-40h66.938zm2.51 16 6.275 40h-69.2l-5.334-40zm-60.789 56h69.573l6.275 40h-70.518zm31.93-240h-34.424l26.9-47.944zm-43.4 16h45.908l2.719 17.336-11.988-7.992a8 8 0 0 0 -10.095 1l-31.479 31.479c-.9.328-5.66 1.458-15.289-5.777zm-156.179-165.8a5.406 5.406 0 0 1 5.39-1.337l115.3 33.72a10.727 10.727 0 0 1 7.276 13.291l-3.121 10.671-18.843 17.809-18.6-24.837a8 8 0 0 0 -4.158-2.883l-80.115-23.428-4.62-17.658a5.409 5.409 0 0 1 1.491-5.348zm-11.234 84.487 13.2-45.149 74.224 21.706 19.989 26.681-7.59 25.954a32.957 32.957 0 0 1 -40.885 22.382l-25.538-7.468-11.021-3.223a33 33 0 0 1 -22.379-40.883zm24.736 58.244 22.948 6.711-2.869 9.812-22.581-7.6zm38.534 10.419a48.984 48.984 0 0 0 51.905-34.98l8.1-27.713 4.932-4.657h21.477l-20.981 35.969 13.82 8.063 25.685-44.032h25.743l-58.146 103.636-75.8-25.111zm-82 1.948 137.837 45.662-25.094 20.074-15.769-5.256a8 8 0 0 0 -10.218 5.379l-22.4 77.913-92.113-26.935 21.023-71.89a8 8 0 0 0 -7.674-10.245h-10.72l-15.844-26.406zm-25.164 50.702h.082l-16.521 56.492-11.254-11.063zm-36.248 59.458 18.128 17.816a7.993 7.993 0 0 0 3.362 1.973l96.512 28.224c-11.425 13.963-36.9 38.852-67.227 29.1l-75.3-36.892zm-53.182-90.616a108.6 108.6 0 0 1 -24.687-23.9l12.382-12.383 10.587 15.881c8.254 12.382 22.543 18.1 41.32 16.535a92.73 92.73 0 0 0 17.769-3.367l9.979 16.631c-23.838 8.07-46.457 4.93-67.35-9.397zm-67.463 95.158h24.4a8 8 0 0 0 6.86-3.884c8.815-14.693 26.579-39.892 36.718-44.961a3.778 3.778 0 0 1 3.476-.333c2.556 1.057 5.208 4.544 7.286 8.263a24.9 24.9 0 0 0 -4 3.258c-13.729 13.732-38.347 43.957-46.172 53.657h-9.007c-4.683-4.212-12.319-10.339-19.561-16zm93.876-5.834a8 8 0 0 0 -11.494.566l-50.86 58.122-25.022-20.854h25.9a8 8 0 0 0 6.247-3c.317-.4 31.907-39.839 47.41-55.341a6.174 6.174 0 0 1 5.172-2.118c5.635.393 12.923 6.448 18.06 11.808l-9.8 16.083zm77.888 213.834h-180.691l96.689-158.6 77.119 37.785a8.064 8.064 0 0 0 .989.406 61.745 61.745 0 0 0 19.611 3.232c16.12 0 32.337-6.453 47.745-19.146a130.279 130.279 0 0 0 25.444-28.445v-.007a7.98 7.98 0 0 0 .9-2.009l22.32-77.619 11.983 3.994a8 8 0 0 0 7.527-1.344l6.417-5.134c1.114.88 2.381 1.851 3.792 2.885zm148.936-257.194 12.621-10.1c25.332 22.169 39.025 10.578 40.591 9.09.05-.047.1-.095.147-.143l27.362-27.363 11.837 7.892c-4.92 6.325-15 17.42-33.656 31.414-19.432 14.576-46.161-1.369-58.902-10.79zm40.83 32.7a45.131 45.131 0 0 0 27.67-9.106c15.836-11.877 26.117-22.011 32.586-29.442l7.379 47.042h-66.565l-1.133-8.494zm29.87 224.494-4.267-32h70.891l5.02 32z"/><path d="m122.817 420h82.365v15.999h-82.365z" transform="matrix(.486 -.874 .874 .486 -289.787 363.523)"/><path d="m66.817 420h82.365v15.999h-82.365z" transform="matrix(.486 -.874 .874 .486 -318.593 314.569)"/></svg>