<svg id="Capa_1" enable-background="new 0 0 512 512" height="512" viewBox="0 0 512 512" width="512" xmlns="http://www.w3.org/2000/svg"><g><g><g><path d="m386.452 212.005c-1.924-1.632-2.751-4.136-2.157-6.521 2.753-11.054 4.223-22.645 4.223-34.594 0-22.425-5.161-43.596-14.309-62.307h-236.418c-9.148 18.711-14.309 39.882-14.309 62.307 0 11.949 1.47 23.54 4.223 34.594.594 2.385-.234 4.889-2.157 6.521-11.725 9.95-18.922 24.618-18.268 40.871 1.101 27.362 24.836 49.472 53.641 50.004 12.522.232 72.823 5.739 95.079 5.739s82.557-5.507 95.079-5.739c28.805-.532 52.54-22.642 53.641-50.004.654-16.254-6.543-30.922-18.268-40.871z" fill="#784132"/><path d="m191.239 94.721c-33.721 31.711-51.832 141.993-22.73 177.99 30.966 38.304 144.064 38.3 174.984 0 29.077-36.017 10.991-146.279-22.73-177.99-25.66-24.129-103.866-24.129-129.524 0z" fill="#e0aea2"/><path d="m320.761 94.721c-14.804-13.922-47.101-19.81-76.704-17.667 21.706 1.571 41.964 7.459 52.818 17.667 33.721 31.711 51.808 141.973 22.73 177.99-13.747 17.028-43.74 26.479-75.534 28.367 39.723 2.358 82.246-7.094 99.42-28.367 29.078-36.017 10.992-146.279-22.73-177.99z" fill="#d79b8c"/><path d="m167.698 32.108c39.252-32.811 137.33-32.811 176.581 0 12.091 10.107 22.742 60.34 22.742 60.34h-222.042s10.628-50.233 22.719-60.34z" fill="#9ec8fc"/><path d="m312.678 30.104c10.352 9.385 19.647 50.664 22.107 62.344h32.236s-10.651-50.233-22.742-60.34c-17.987-15.035-48.328-23.176-79.7-24.431 19.214 4.267 36.311 11.74 48.099 22.427z" fill="#62a4fb"/><path d="m376.209 81.17c-48.082-24.559-192.335-24.557-240.418 0-9.266 4.733-22.204 38.978-11.729 38.978h263.875c10.475 0-2.462-34.245-11.728-38.978z" fill="#5392f9"/><path d="m287.59 236.71c0 16.203-14.146 32.619-31.596 32.619s-31.596-16.416-31.596-32.619 14.146-8.626 31.596-8.626 31.596-7.578 31.596 8.626z" fill="#e175a5"/><g><path d="m256 295.968v208.532l196.51-65.79c2.675-.895 4.477-3.4 4.477-6.221v-197.734c0-2.988-2.929-5.096-5.762-4.147z" fill="#ca59a6"/><path d="m317.688 321.322v39.41c0 2.241 2.197 3.822 4.321 3.11l71.053-23.788c1.337-.448 2.239-1.7 2.239-3.11v-39.41c0-2.241-2.197-3.822-4.321-3.11l-71.053 23.788c-1.338.447-2.239 1.699-2.239 3.11z" fill="#ecb880"/><path d="m256 295.968v208.532l-196.51-65.79c-2.675-.895-4.477-3.4-4.477-6.221v-197.734c0-2.988 2.929-5.096 5.762-4.147z" fill="#e175a5"/></g><g fill="#e0aea2"><path d="m480.439 383.715c-3.848 3.848-14.798 3.812-24.7 2.832-10.471-1.036-18.427-9.886-18.427-20.407v-38.165c0-10.522 7.956-19.371 18.427-20.407 9.903-.98 20.852-1.016 24.7 2.832 12.961 12.959 12.961 60.354 0 73.315z"/><path d="m31.561 383.715c3.848 3.848 14.798 3.812 24.7 2.832 10.471-1.036 18.427-9.886 18.427-20.407v-38.165c0-10.522-7.956-19.371-18.427-20.407-9.903-.98-20.852-1.016-24.7 2.832-12.961 12.959-12.961 60.354 0 73.315z"/></g><g><path d="m362.062 97.839c.415-.093 14.133-19.005 7.291-34.471s-20.648-25.258-30.836-21.871c-6.509 2.164-9.962 9.184-9.826 18.004.043 2.784-2.182 5.01-4.967 4.967-8.82-.136-15.84 3.318-18.004 9.826-3.387 10.189 6.405 23.995 21.871 30.837s34.378-6.877 34.471-7.292z" fill="#e175a5"/><path d="m372.096 107.872c.093-.415 19.005-14.133 34.471-7.291s25.258 20.648 21.871 30.836c-2.164 6.509-9.184 9.962-18.004 9.826-2.784-.043-5.01 2.182-4.967 4.967.136 8.82-3.318 15.84-9.826 18.004-10.189 3.387-23.995-6.405-30.837-21.871-6.841-15.466 6.877-34.377 7.292-34.471z" fill="#e175a5"/><path d="m346.388 123.546c-6.912-6.912-6.912-18.12 0-25.032l16.349-16.349c6.912-6.912 18.12-6.912 25.032 0 6.912 6.912 6.912 18.12 0 25.032l-16.349 16.349c-6.912 6.913-18.119 6.913-25.032 0z" fill="#ca59a6"/></g></g></g><g><path d="m222.084 193.495v-6.635c0-4.142-3.358-7.5-7.5-7.5s-7.5 3.357-7.5 7.5v6.635c0 4.142 3.358 7.5 7.5 7.5s7.5-3.357 7.5-7.5z"/><path d="m226.994 168.227c3.805 1.594 8.209-.186 9.814-4.021 1.6-3.82-.201-8.214-4.021-9.814-12.08-5.058-24.328-5.056-36.404 0-3.82 1.601-5.62 5.995-4.02 9.815 1.601 3.82 5.994 5.619 9.815 4.02 8.346-3.496 16.464-3.496 24.816 0z"/><path d="m297.415 179.36c-4.142 0-7.5 3.357-7.5 7.5v6.635c0 4.142 3.357 7.5 7.5 7.5 4.142 0 7.5-3.357 7.5-7.5v-6.635c0-4.143-3.357-7.5-7.5-7.5z"/><path d="m315.618 154.391c-12.081-5.058-24.328-5.057-36.405 0-3.82 1.601-5.62 5.994-4.02 9.815 1.602 3.821 5.992 5.621 9.815 4.02 8.347-3.496 16.466-3.496 24.817 0 3.805 1.594 8.209-.186 9.814-4.021 1.6-3.82-.2-8.214-4.021-9.814z"/><path d="m268.091 219.633c-3.891.473-7.916.961-12.096.961s-8.204-.488-12.096-.961c-8.271-1.003-16.082-1.953-21.759 3.075-3.526 3.124-5.24 7.707-5.24 14.012 0 21.371 18.268 40.117 39.094 40.117s39.095-18.746 39.095-40.117c0-6.305-1.714-10.888-5.24-14.012-5.674-5.027-13.486-4.08-21.758-3.075zm-12.096 42.205c-13.57 0-24.095-13.502-24.095-25.118 0-1.529.173-2.361.289-2.746 1.726-.442 6.604.147 9.902.549 4.132.502 8.816 1.07 13.904 1.07 9.763 0 20.593-2.443 23.807-1.619.115.385.288 1.217.288 2.746 0 11.616-10.525 25.118-24.095 25.118z"/><path d="m402.794 336.949v-39.409c0-3.458-1.676-6.728-4.481-8.748-2.806-2.021-6.439-2.572-9.72-1.475l-71.053 23.788c-4.399 1.476-7.354 5.583-7.354 10.221v39.407c0 3.459 1.676 6.73 4.483 8.75 2.786 2.005 6.411 2.579 9.718 1.473l71.053-23.787c4.399-1.474 7.354-5.582 7.354-10.22zm-15-3.037-62.61 20.96v-30.507l62.61-20.961z"/><path d="m485.734 305.102c-3.972-3.973-10.696-5.764-21.252-5.575v-64.767c0-3.806-1.847-7.408-4.939-9.632-3.091-2.223-7.094-2.828-10.701-1.62l-38.45 12.872c-2.966-11.399-9.397-21.721-18.67-29.724 2.772-11.314 4.202-23.007 4.277-34.777.672-.148 1.339-.319 1.996-.538 8.746-2.901 14.316-11.448 14.917-22.635 11.164-.59 19.719-6.154 22.637-14.905 4.648-13.971-6.752-31.57-25.95-40.064-2.929-1.296-6.067-2.083-9.377-2.391-.721-5.46-3.194-10.508-7.155-14.467-3.96-3.961-9.007-6.434-14.467-7.155-.309-3.299-1.098-6.435-2.397-9.368-4.386-9.921-11.202-17.751-18.692-22.369-2.746-5.364-5.513-9.181-8.425-11.612-14.998-12.54-38.696-21.337-66.727-24.768-26.573-3.254-54.301-1.531-78.081 4.848-4 1.074-6.373 5.187-5.3 9.187 1.073 4.001 5.187 6.369 9.187 5.301 44.028-11.813 99.36-5.539 127.124 13.786-8.26 3.174-13.492 11.512-14.056 22.306-2.735.144-5.31.59-7.687 1.304-30.838-3.47-67.033-4.016-99.629-1.479-23.138 1.801-40.657 4.733-53.872 7.977 5.179-16.334 9.687-24.631 12.478-26.965 1.705-1.431 3.629-2.853 5.72-4.229 3.461-2.276 4.421-6.926 2.144-10.387-2.276-3.461-6.928-4.422-10.387-2.143-2.576 1.694-4.971 3.468-7.109 5.261-2.566 2.147-10.198 8.535-20.03 43.621-4.23 1.555-7.685 3.086-10.476 4.511-6.994 3.568-12.247 13.92-14.756 19.774-1.991 4.644-6.411 16.317-4.473 24.379 1.189 4.946 4.636 8.217 9.184 8.876-4.219 13.969-6.356 28.511-6.356 43.368 0 12.106 1.446 24.139 4.292 35.753-9.274 8.005-15.704 18.326-18.669 29.725l-38.445-12.871c-3.61-1.212-7.613-.605-10.706 1.619-3.093 2.225-4.939 5.825-4.939 9.631v64.767c-10.554-.188-17.278 1.602-21.252 5.576-2.796 2.795-11.916 14.083-11.916 41.959s9.121 39.165 11.917 41.96c3.785 3.785 10.051 5.599 19.762 5.599.482 0 .99-.014 1.489-.022v37.894c0 6.038 3.851 11.393 9.599 13.331l196.501 65.787c.158.053 1.115.28 1.216.296.037.006 1.034.094 1.166.094.591 0 .895-.052 1.362-.139.315-.059.715-.149 1.018-.251l111.955-37.479c3.928-1.315 6.046-5.565 4.731-9.493s-5.563-6.044-9.493-4.731l-102.072 34.171v-192.704l185.982-62.264v62.108c-11.53 3.54-19.677 14.213-19.677 26.76v38.164c0 12.547 8.147 23.22 19.677 26.76v38.909l-50.539 16.915c-3.928 1.314-6.046 5.564-4.731 9.493 1.31 3.912 5.545 6.049 9.493 4.731l51.193-17.135c5.732-1.933 9.584-7.288 9.584-13.326v-37.894c.499.009 1.007.022 1.489.022 9.711 0 15.978-1.813 19.763-5.598 2.795-2.795 11.915-14.084 11.915-41.96 0-27.874-9.121-39.163-11.915-41.958zm-89.607-63.946-35.113 11.755c8.97-33.069 3.711-81.189-8.793-117.564 1.087.297 2.197.522 3.325.671.309 3.306 1.096 6.443 2.392 9.373 5.233 11.816 13.912 20.673 23.067 24.657.002.283.01.572.01.854 0 11.103-1.348 22.129-4.011 32.792-1.276 5.172.481 10.549 4.592 14.037 7.39 6.266 12.419 14.434 14.531 23.425zm-140.127 46.912-87.054-29.144c-11.845-26.863-10.127-85.97 9.852-131.26h154.404c19.975 45.281 21.693 104.39 9.851 131.26zm154.532-154.312c-3.367-.045-6.579 1.242-8.965 3.636-2.383 2.391-3.662 5.576-3.601 8.943.287 19.476-18.517 10.588-26.311-7.015-.77-1.74-1.188-3.696-1.255-5.843 2.304-1.184 4.437-2.727 6.322-4.611 15.215-15.669 17.973-16.861 20.957-22.666 2.152.067 4.111.486 5.853 1.256 17.418 7.706 26.675 26.65 7 26.3zm-25.083-39.059c0 2.462-.944 5.169-2.988 7.213l-16.348 16.348c-2.025 2.026-4.724 2.988-7.213 2.988-2.724 0-5.285-1.061-7.212-2.987-4.065-4.065-3.899-10.527 0-14.425l16.348-16.348c1.927-1.928 4.488-2.988 7.213-2.988s5.285 1.061 7.213 2.988c1.926 1.926 2.987 4.486 2.987 7.211zm-52.884-26.332c2.384-2.385 3.67-5.565 3.621-8.966-.07-4.427 1.125-9.579 4.698-10.764 5.655-1.881 16.093 5.326 21.603 17.788.774 1.749 1.194 3.706 1.261 5.846-2.302 1.184-4.434 2.726-6.318 4.609l-16.348 16.348c-1.883 1.884-3.426 4.015-4.609 6.318-2.152-.067-4.111-.487-5.852-1.257-13.49-5.965-19.451-16.608-17.784-21.617 1.25-3.763 6.819-4.728 10.774-4.683 3.358.052 6.557-1.225 8.954-3.622zm-201.313 32.214c3.379-8.03 6.875-12.127 7.955-12.713 27.896-15.16 97.323-21.067 159.395-15.923-4.647 13.975 6.752 31.572 25.951 40.061.539.239 1.087.456 1.639.661h-198.435c.284-2.532 1.231-6.706 3.495-12.086zm-.844 117.149c4.106-3.484 5.865-8.863 4.583-14.055-2.658-10.644-4.006-21.67-4.006-32.771 0-14.881 2.38-29.4 7.067-43.238h24.549c-14.494 37.036-21.236 89.794-11.617 125.247l-35.111-11.755c2.113-8.991 7.142-17.16 14.535-23.428zm-93.623 160.597c-9.844-10.097-9.843-52.429 0-62.527 3.413-1.982 14.809-1.152 18.746-.762 6.651.658 11.666 6.222 11.666 12.943v38.164c0 6.72-5.015 12.285-11.665 12.943-14.416 1.426-18.316-.513-18.747-.761zm25.733 14.579c11.53-3.54 19.677-14.213 19.677-26.76v-38.164c0-12.547-8.148-23.22-19.677-26.76v-62.11l185.982 62.265v192.703l-185.982-62.265zm412.697-14.578c-.432.248-4.337 2.186-18.746.761-6.65-.658-11.665-6.222-11.665-12.943v-38.164c0-6.72 5.014-12.285 11.665-12.943.429-.042 1.283-.12 1.296-.121 3.219-.286 5.878-.398 8.063-.398 6.875 0 9.071 1.098 9.387 1.28 9.844 10.098 9.844 52.43 0 62.528z"/></g></g></svg>