<svg height="512pt" viewBox="-26 0 512 512.00006" width="512pt" xmlns="http://www.w3.org/2000/svg"><path d="m85.648438 462.105469c3.359374 12.390625-.730469 25.015625-9.5625 33.238281h299.671874c-8.828124-8.222656-12.925781-20.847656-9.5625-33.238281l7.730469-28.503907h-42.601562v-91.890624c0-1.457032-.042969-2.90625-.121094-4.34375 34.699219-.3125 67.292969-17.03125 87.601563-44.476563-11.3125 4.285156-24.4375 1.996094-33.382813-6.953125-5.1875-5.1875-8.128906-11.78125-8.859375-18.609375-14.753906 17.410156-38.988281 25.71875-62.53125 19.222656-.527344-.148437-3.894531-2.128906-8.960938-4.917969-17.636718 12.070313-39.007812 19.144532-62.046874 19.144532h-32.269532c-23.25 0-44.804687-7.203125-62.53125-19.472656-16.976562 14.738281-27.707031 36.328124-27.707031 60.40625v91.890624h-42.601563zm0 0" fill="#d5e962"/><path d="m243.027344 300.777344h-32.273438c-6.753906 0-13.359375-.613282-19.773437-1.773438 4.078125 15.863282 18.632812 27.601563 35.960937 27.601563 17.339844 0 31.898438-11.75 35.972656-27.625-6.453124 1.175781-13.097656 1.796875-19.886718 1.796875zm0 0" fill="#ffd5b3"/><path d="m361.34375 147.542969h-8.828125c-.019531-10.652344-1.519531-20.960938-4.304687-30.742188-28.9375-5.425781-50.820313-22.636719-65.128907-51.265625-.257812-.519531-.5-1.035156-.746093-1.554687-20.640626 21.285156-47.890626 45.726562-64.1875 45.726562-17 0-6.183594-22.425781-6.183594-22.425781s-32.300782 28.210938-50.167969 20.976562c-25.269531-10.226562 0-28.929687 0-28.929687s-29.84375 17.328125-50.492187 21.832031c-6.429688 14.171875-10.019532 29.867188-10.050782 46.382813h-8.824218c-14.113282 0-25.664063 11.472656-25.664063 25.492187v21.308594c0 14.023438 11.550781 25.492188 25.664063 25.492188h12.441406c12.375 46.589843 55.085937 80.941406 105.882812 80.941406h32.273438c50.789062 0 93.496094-34.351563 105.871094-80.941406h12.445312c14.113281 0 25.660156-11.46875 25.660156-25.492188v-21.308594c.003906-14.019531-11.546875-25.492187-25.660156-25.492187zm0 0" fill="#ffd5b3"/><path d="m153.476562 256.660156c-4.230468 6.53125-10.605468 11.578125-18.152343 14.160156-.007813.003907-.019531.007813-.027344.011719 19.640625 18.554688 46.207031 29.941407 75.457031 29.941407h30.789063c-36.101563.003906-68.121094-17.351563-88.066407-44.113282zm0 0" fill="#e5bfa1"/><path d="m102.785156 210.082031c5.867188-4.316406 13.140625-6.878906 21.019532-6.878906 3.089843 0 6.085937.398437 8.941406 1.136719-.460938-4.042969-.703125-8.152344-.703125-12.316406 0 0 0-42.695313 0-44.261719 0-23.082031 6.945312-44.5625 18.890625-62.539063-10.574219 5.464844-26.855469 13.152344-39.628906 15.9375-6.457032 14.234375-10.050782 30.003906-10.050782 46.601563v44.261719c0 6.160156.523438 12.203124 1.515625 18.085937.003907-.007813.007813-.015625.015625-.027344zm0 0" fill="#e5bfa1"/><path d="m329.96875 203.203125c-19.441406 0-35.195312 15.566406-35.195312 34.765625 0 15.214844 9.894531 28.136719 23.675781 32.851562 16.8125-15.878906 28.542969-37 32.539062-60.734374-5.863281-4.320313-13.140625-6.882813-21.019531-6.882813zm0 0" fill="#ffb98a"/><path d="m123.804688 203.203125c-7.878907 0-15.152344 2.5625-21.019532 6.878906 3.996094 23.738281 15.726563 44.859375 32.539063 60.738281 13.78125-4.714843 23.679687-17.636718 23.679687-32.851562 0-19.199219-15.757812-34.765625-35.199218-34.765625zm0 0" fill="#ffb98a"/><path d="m226.886719 271.261719c-22.832031 0-41.40625-20.179688-41.40625-44.984375 0-3.226563 2.648437-5.839844 5.914062-5.839844h70.984375c3.265625 0 5.914063 2.613281 5.914063 5.839844 0 24.804687-18.578125 44.984375-41.40625 44.984375zm0 0" fill="#fb8276"/><path d="m216.300781 226.277344c0-3.226563 2.648438-5.84375 5.914063-5.84375h-30.820313c-3.265625 0-5.914062 2.617187-5.914062 5.84375 0 24.804687 18.574219 44.984375 41.40625 44.984375 5.445312 0 10.644531-1.160157 15.410156-3.242188-15.21875-6.65625-25.996094-22.851562-25.996094-41.742187zm0 0" fill="#e1756a"/><path d="m351.25 76.125c-10.640625-21.082031-27.765625-37.355469-51.074219-48.589844-114.449219-58.859375-198.21875 27.472656-207.097656 59.023438-10.996094 39.058594 68.71875-7.230469 68.71875-7.230469s-25.269531 18.703125 0 28.929687c17.867187 7.234376 50.167969-20.976562 50.167969-20.976562s-10.816406 22.425781 6.183594 22.425781c16.296874 0 43.546874-24.441406 64.1875-45.726562.246093.519531.488281 1.035156.746093 1.554687 15.761719 31.53125 40.707031 49.210938 74.144531 52.554688.128907.011718.261719.019531.390626.019531 1.074218 0 2.109374-.441406 2.882812-1.242187.871094-.894532 1.316406-2.144532 1.230469-3.421876-.511719-7.195312-2.550781-21.613281-10.480469-37.320312zm0 0" fill="#ffc502"/><path d="m123.335938 86.558594c6.246093-22.191406 49.546874-71.488282 114.515624-78.296875-81.582031-8.398438-137.601562 52.816406-144.777343 78.296875-5.488281 19.496094 11.625 17.726562 30.144531 11.066406-1.203125-2.480469-1.289062-6.070312.117188-11.066406zm0 0" fill="#e5b102"/><path d="m85.648438 462.105469c4.871093 17.960937-5.917969 36.425781-24.105469 41.238281s-36.878907-5.847656-41.753907-23.808594l-11.109374-40.957031c-4.875-17.964844 5.921874-36.425781 24.105468-41.238281 18.1875-4.8125 36.878906 5.847656 41.75 23.808594zm0 0" fill="#89c947"/><path d="m50.570312 479.535156-11.109374-40.957031c-4.25-15.671875 3.425781-31.722656 17.527343-38.757813-7.222656-3.609374-15.765625-4.710937-24.203125-2.480468-18.183594 4.8125-28.976562 23.273437-24.105468 41.238281l11.109374 40.957031c4.875 17.960938 23.566407 28.621094 41.753907 23.808594 2.320312-.613281 4.515625-1.449219 6.578125-2.480469-8.347656-4.171875-14.9375-11.699219-17.550782-21.328125zm0 0" fill="#7bb540"/><path d="m366.195312 462.105469c-4.871093 17.960937 5.921876 36.425781 24.105469 41.238281 18.1875 4.8125 36.878907-5.847656 41.753907-23.808594l11.109374-40.957031c4.871094-17.964844-5.921874-36.425781-24.105468-41.238281s-36.878906 5.847656-41.75 23.808594zm0 0" fill="#89c947"/><path d="m397.175781 462.105469 11.109375-40.957031c2.601563-9.589844 9.144532-17.09375 17.445313-21.277344-2.089844-1.050782-4.316407-1.910156-6.671875-2.53125-18.183594-4.8125-36.878906 5.847656-41.75 23.808594l-11.113282 40.957031c-4.871093 17.960937 5.921876 36.425781 24.105469 41.238281 8.476563 2.242188 17.0625 1.121094 24.308594-2.53125-14.042969-7.058594-21.675781-23.070312-17.433594-38.707031zm0 0" fill="#7bb540"/><path d="m450.527344 252.84375-1.6875-1.6875c-3.421875-3.421875-8.964844-3.421875-12.386719 0l-14.597656 14.597656-1.085938-1.085937 17.816407-17.8125c3.417968-3.421875 3.417968-8.96875 0-12.386719l-1.691407-1.691406c-3.417969-3.417969-8.964843-3.417969-12.386719 0l-17.8125 17.816406-1.085937-1.085938 14.597656-14.597656c3.421875-3.421875 3.421875-8.964844 0-12.386718l-1.6875-1.6875c-3.421875-3.421876-8.96875-3.421876-12.386719 0l-16.582031 16.582031-.765625-2.28125c-1.664062-4.949219-7.019531-7.609375-11.96875-5.949219l-2.441406.820312c-4.949219 1.664063-7.613281 7.019532-5.949219 11.96875l8.039063 24.265626c.519531 7.214843 3.496094 14.234374 8.957031 19.695312 12.261719 12.261719 32.359375 12.035156 44.898437-.503906l20.207032-20.203125c3.421875-3.421875 3.421875-8.964844 0-12.386719zm0 0" fill="#ffd5b3"/><path d="m267.59375 466.726562.832031-2.238281c1.6875-4.535156-.621093-9.578125-5.152343-11.261719l-19.351563-7.195312.539063-1.441406 23.609374 8.78125c4.535157 1.6875 9.574219-.621094 11.261719-5.15625l.832031-2.238282c1.6875-4.53125-.621093-9.574218-5.15625-11.261718l-23.609374-8.777344.53125-1.441406 19.351562 7.195312c4.53125 1.6875 9.574219-.621094 11.261719-5.15625l.832031-2.238281c1.683594-4.535156-.625-9.578125-5.15625-11.261719l-21.929688-8.15625-.050781-.019531 1.753907-1.644531c3.808593-3.570313 4-9.550782.429687-13.359375l-1.765625-1.878907c-3.570312-3.808593-9.550781-3.996093-13.355469-.425781l-18.71875 17.410157c-6.34375 3.476562-11.488281 9.105468-14.179687 16.347656-6.042969 16.25 2.53125 34.429687 19.148437 40.613281l26.78125 9.957031c4.535157 1.6875 9.578125-.621094 11.261719-5.152344zm0 0" fill="#ffd5b3"/><path d="m331.328125 369.492188c4.144531 0 7.5-3.359376 7.5-7.5v-17.441407c22.257813-1.660156 44.007813-9.722656 61.949219-23.078125 8.738281-6.5 16.371094-14.042968 22.816406-22.433594 4.417969-1.976562 8.492188-4.761718 12.03125-8.300781l20.207031-20.203125c3.070313-3.070312 4.761719-7.15625 4.761719-11.5 0-4.339844-1.691406-8.425781-4.761719-11.496094l-1.691406-1.6875c-1.613281-1.613281-3.507813-2.847656-5.570313-3.652343.441407-4.660157-1.121093-9.476563-4.683593-13.035157l-1.6875-1.691406c-3.070313-3.070312-7.152344-4.761718-11.496094-4.761718-.519531 0-1.035156.023437-1.542969.074218-.804687-2.0625-2.039062-3.953125-3.648437-5.566406l-1.691407-1.6875c-3.070312-3.070312-7.152343-4.761719-11.496093-4.761719-4.339844 0-8.425781 1.691407-11.496094 4.761719l-9.847656 9.847656c-2.84375-2.488281-6.507813-3.988281-10.441407-4.152344 8.441407-5.988281 13.96875-15.800781 13.96875-26.878906v-21.3125c0-18.191406-14.878906-32.988281-33.164062-32.988281h-1.570312c-.3125-4.902344-.929688-9.726563-1.8125-14.457031 2.960937-.089844 5.835937-1.347656 7.925781-3.5 2.351562-2.429688 3.5625-5.773438 3.324219-9.171875-.550782-7.757813-2.742188-23.296875-11.265626-40.175781-11.433593-22.65625-29.757812-40.078126-54.628906-52.023438-58.613281-30.035156-107.132812-22.050781-138.1875-9.460938-45.660156 18.511719-73.84375 53.988282-79.273437 73.269532-3.441407 12.230468.5625 18.460937 4.527343 21.539062 2.035157 1.574219 4.910157 3.113282 9.605469 3.53125-3.242187 9.675782-5.308593 19.875-5.984375 30.445313h-1.574218c-18.289063 0-33.164063 14.800781-33.164063 32.992187v21.308594c0 18.191406 14.875 32.996094 33.164063 32.996094h6.847656c6.964844 21.652344 20.164062 40.554687 37.476562 54.644531-14.722656 15.691406-23.738281 36.6875-23.738281 59.726563v84.390624h-29.363281l-1.875-6.917968c-4.875-17.957032-21.382813-30.5-40.148438-30.5-3.617187 0-7.238281.472656-10.761718 1.40625-10.808594 2.859375-19.816407 9.730468-25.367188 19.34375-5.484375 9.496094-6.925781 20.542968-4.0625 31.109375l11.113281 40.957031c4.875 17.957031 21.382813 30.5 40.148438 30.5 3.617187 0 7.238281-.472656 10.761719-1.402344 5.730468-1.519531 10.945312-4.171875 15.414062-7.753906h294.089844c4.472656 3.582031 9.6875 6.234375 15.417968 7.753906 3.519532.929688 7.140626 1.402344 10.757813 1.402344h.003906c18.765625 0 35.273438-12.542969 40.148438-30.5l11.109375-40.957031c2.867187-10.566407 1.425781-21.613281-4.058594-31.109375-5.550781-9.613282-14.558594-16.484375-25.367188-19.34375-3.523437-.933594-7.144531-1.40625-10.765624-1.40625-18.761719 0-35.273438 12.542968-40.144532 30.5l-1.875 6.917968h-29.363281v-28.105468c0-4.144532-3.359375-7.5-7.5-7.5-4.144531 0-7.5 3.355468-7.5 7.5v35.605468c0 4.144532 3.355469 7.5 7.5 7.5h32.792969l-5.164063 19.042969c-2.53125 9.324219-1.699219 19.023438 2.300781 27.699219h-270.671874c4-8.675781 4.832031-18.375 2.300781-27.703125l-5.164063-19.039063h32.792969c4.144531 0 7.5-3.359374 7.5-7.5v-29.511718c2.445313 4.273437 5.164063 8.429687 8.183594 12.425781 1.472656 1.953125 3.71875 2.984375 5.992187 2.984375 1.570313 0 3.15625-.496094 4.511719-1.515625 3.308594-2.496094 3.964844-7.199219 1.46875-10.503906-13.183594-17.476563-20.152344-38.230469-20.152344-60.027344v-5.742187c0-19.800782 8.042969-37.78125 21.078125-50.933594 10.960938 6.78125 23.128906 11.796875 36.097656 14.679687 6.359376 16.714844 22.664063 28.648438 41.746094 28.648438 19.097656 0 35.410156-11.941407 41.757813-28.671875 13.191406-2.949219 25.546875-8.097656 36.644531-15.066406.359375.203124.703125.394531 1.023438.574218 3.695312 2.074219 4.460937 2.503906 5.671874 2.839844 6.070313 1.671875 12.179688 2.472656 18.195313 2.472656 15.722656 0 30.773437-5.476562 42.707031-15.015625 1.828125 3.679688 4.238282 7.066407 7.179688 10.003907 5.648437 5.648437 12.78125 9.3125 20.550781 10.65625-18.371094 17.25-43.0625 27.730468-69.53125 27.96875-2.046875.015624-4 .871093-5.402344 2.363281-1.398437 1.496093-2.128906 3.496093-2.019531 5.542969.074219 1.375.109375 2.664062.109375 3.9375v20.28125c0 4.140624 3.359375 7.5 7.5 7.5zm-238.898437-157.15625c-10.015626 0-18.164063-8.070313-18.164063-17.992188v-21.308594c0-9.917968 8.148437-17.992187 18.164063-17.992187h1.320312v36.980469c0 6.925781.617188 13.714843 1.792969 20.3125zm-16.589844 271.414062c-3.539063 6.128906-9.300782 10.511719-16.214844 12.34375-2.269531.601562-4.601562.90625-6.925781.90625-12.007813 0-22.566407-7.992188-25.671875-19.429688l-11.109375-40.953124c-1.8125-6.683594-.898438-13.671876 2.570312-19.683594 3.539063-6.128906 9.296875-10.511719 16.214844-12.34375 2.273437-.601563 4.601563-.90625 6.925781-.90625 12.011719 0 22.566406 7.988281 25.667969 19.429687l11.113281 40.957031c1.8125 6.679688.898438 13.667969-2.570312 19.679688zm297.59375-19.679688 11.113281-40.957031c3.101563-11.441406 13.65625-19.429687 25.667969-19.429687 2.324218 0 4.652344.304687 6.925781.90625 6.914063 1.832031 12.675781 6.214844 16.214844 12.34375 3.46875 6.011718 4.382812 13 2.570312 19.683594l-11.109375 40.953124c-3.105468 11.441407-13.660156 19.429688-25.671875 19.429688-2.324219 0-4.652343-.304688-6.925781-.90625-6.914062-1.832031-12.675781-6.214844-16.214844-12.34375-3.46875-6.011719-4.378906-13-2.570312-19.679688zm-61.636719-421.261718c14.332031 9.652344 25.296875 21.910156 32.757813 36.695312 6.117187 12.113282 8.441406 23.371094 9.320312 30.628906-27.550781-3.910156-48.527344-18.964843-62.4375-44.796874 8.796875-9.25 16.058594-17.515626 20.359375-22.527344zm-174.773437 219.113281c-12.6875-13.1875-21.832032-29.757813-25.902344-48.195313 3.894531-1.984374 8.207031-3.023437 12.683594-3.023437 15.273437 0 27.699218 12.234375 27.699218 27.265625 0 10.09375-5.671875 19.242188-14.480468 23.953125zm89.917968 57.183594c-9.382812 0-17.75-4.332031-23.179687-11.058594 2.316406.136719 4.644531.230469 6.992187.230469h32.273438c2.386718 0 4.746094-.097656 7.097656-.238282-5.425781 6.734376-13.796875 11.066407-23.183594 11.066407zm16.085938-25.828125h-32.273438c-23.339844 0-44.867187-7.828125-62.074218-20.972656 10.980468-7.796876 17.824218-20.480469 17.824218-34.335938 0-23.304688-19.152344-42.265625-42.699218-42.265625-5.144532 0-10.144532.910156-14.847657 2.640625-.128906-2.089844-.203125-4.195312-.203125-6.320312v-44.261719c0-14.230469 2.851563-27.8125 8.007813-40.242188 5.386719-1.445312 11.828125-3.703125 19.574219-7.042969 2.3125-.996093 4.585937-2.023437 6.773437-3.042968.023437.304687.054687.609375.09375.914062.636719 5.039063 3.894531 12.050782 15.78125 16.863282 9.699219 3.925781 22.632813 1.140624 38.4375-8.285157 1.382813-.824219 2.726563-1.664062 4.015625-2.5.367188 1.976563 1.046875 3.890625 2.148438 5.648438 2.042968 3.253906 6.226562 7.128906 14.5625 7.128906 7.75 0 17.039062-3.792969 28.402343-11.601563 3.414063-2.34375 4.28125-7.015624 1.933594-10.429687s-7.015625-4.28125-10.429687-1.933594c-11.351563 7.800781-17.34375 8.964844-19.90625 8.964844-1.039063 0-1.65625-.140625-1.917969-.238281-.613281-1.570313.371093-6.972656 2.492187-11.425782 1.546875-3.207031.621094-7.058593-2.210937-9.21875-2.832031-2.160156-6.792969-2.03125-9.476563.308594-.078125.066406-7.828125 6.789063-17.46875 12.511719-10.984375 6.523437-20.082031 9.136719-24.953125 7.164063-4.597656-1.859376-6.390625-3.773438-6.527343-4.84375-.339844-2.597657 4.046874-8.015626 8.175781-11.105469 3.199219-2.371094 3.992187-6.824219 1.804687-10.152344-2.1875-3.324219-6.59375-4.363281-10.03125-2.363281-.132812.074218-13.066406 7.5625-27.464844 13.785156-23.609374 10.207031-30.101562 7.996094-30.90625 7.628906-.109374-.386718-.40625-1.960937.632813-5.664062 3.863281-13.722656 28.503906-46.417969 70.472656-63.433594 28.453125-11.535156 73.234375-18.726562 127.8125 9.996094-7.21875 8.3125-20.261719 22.847656-34.441406 36.3125-3.003906 2.851562-3.125 7.597656-.273437 10.601562 2.851562 3.003906 7.601562 3.125 10.605468.273438 2.042969-1.941406 4.058594-3.898438 6.035156-5.851563 14.546876 24.878907 35.203126 40.527344 61.601563 46.691407 1.898437 7.894531 2.914063 16.121093 2.914063 24.578124v44.261719c0 2.125-.074219 4.230469-.207032 6.324219-4.703125-1.734375-9.699218-2.644531-14.84375-2.644531-23.546875 0-42.699218 18.960937-42.699218 42.265625 0 13.855468 6.84375 26.542968 17.828124 34.339844-17.210937 13.144531-38.738281 20.972656-62.074218 20.972656zm59.242187-55.308594c0-15.03125 12.425781-27.265625 27.699219-27.265625 4.480469 0 8.789062 1.039063 12.683594 3.023437-4.070313 18.4375-13.214844 35.011719-25.902344 48.195313-8.808594-4.710937-14.480469-13.855469-14.480469-23.953125zm17.015625 42.132812c16.199219-13.871093 28.554688-32.0625 35.210938-52.761718h6.847656c1.34375 0 2.664062-.089844 3.964844-.246094-4.320313 4.410156-6.09375 11.015625-4.003906 17.238281l6.949218 20.976563c-12.324218 12.558594-30.699218 18.632812-48.96875 14.792968zm42.058594-67.765624h-3.113281c1.175781-6.597657 1.792969-13.386719 1.792969-20.3125v-36.980469h1.320312c10.015625 0 18.164062 8.074219 18.164062 17.992187v21.308594c0 9.921875-8.148437 17.992188-18.164062 17.992188zm29.382812 68.300781c-3.964843-3.964844-6.371093-9.269531-6.78125-14.933594-.042968-.621094-.167968-1.230469-.359374-1.820313l-8.050782-24.296874c-.34375-1.019532.207032-2.125 1.226563-2.46875l2.441406-.820313c.207031-.070313.417969-.105469.625-.105469.695313 0 1.535156.414063 1.847656 1.332032l.765625 2.28125c.824219 2.453124 2.855469 4.308593 5.371094 4.910156 2.519531.597656 5.167969-.140625 7.007812-1.960938.011719-.011718.0625-.058594.074219-.070312l16.542969-16.546875c.304688-.304688.652344-.367188.890625-.367188s.582031.0625.886719.367188l1.691406 1.691406c.304688.304687.367188.648437.367188.886719 0 .238281-.0625.585937-.367188.890625l-14.597656 14.597656c-1.40625 1.40625-2.199219 3.3125-2.199219 5.300781 0 1.992188.792969 3.898438 2.199219 5.304688l1.085937 1.085937c1.40625 1.40625 3.3125 2.195313 5.304688 2.195313 1.988281 0 3.894531-.789063 5.300781-2.195313l17.816406-17.8125c.304688-.304687.648438-.371093.886719-.371093s.585937.066406.890625.371093l1.691406 1.6875c.488282.488281.488282 1.289063 0 1.777344l-17.816406 17.816406c-2.929688 2.925781-2.929688 7.675781 0 10.605469l1.085938 1.085938c1.40625 1.40625 3.3125 2.195312 5.304687 2.195312 1.988281 0 3.894531-.789062 5.304687-2.195312l14.597657-14.597657c.304687-.304687.648437-.367187.886719-.367187.238281 0 .585937.0625.890624.367187l1.6875 1.691407c.304688.304687.367188.648437.367188.886718 0 .238282-.0625.585938-.367188.890625l-20.203124 20.203125c-4.746094 4.746094-10.996094 7.355469-17.609376 7.355469-6.34375.003906-12.269531-2.429687-16.6875-6.847656zm0 0"/><path d="m163.152344 153.367188c-4.140625 0-7.5 3.355468-7.5 7.5v8.363281c0 4.144531 3.359375 7.5 7.5 7.5 4.144531 0 7.5-3.355469 7.5-7.5v-8.363281c0-4.144532-3.355469-7.5-7.5-7.5zm0 0"/><path d="m298.121094 169.230469v-8.367188c0-4.140625-3.359375-7.5-7.5-7.5-4.144532 0-7.5 3.359375-7.5 7.5v8.367188c0 4.140625 3.355468 7.5 7.5 7.5 4.140625 0 7.5-3.359375 7.5-7.5zm0 0"/><path d="m224.761719 195.769531h9.25c4.144531 0 7.5-3.355469 7.5-7.5 0-4.140625-3.355469-7.5-7.5-7.5h-6.75v-12.234375c0-4.140625-3.359375-7.5-7.5-7.5-4.144531 0-7.503907 3.359375-7.503907 7.5v14.734375c0 6.894531 5.609376 12.5 12.503907 12.5zm0 0"/><path d="m262.378906 212.933594h-70.984375c-7.394531 0-13.414062 5.984375-13.414062 13.34375 0 28.941406 21.941406 52.484375 48.90625 52.484375 26.96875 0 48.90625-23.542969 48.90625-52.484375 0-7.359375-6.019531-13.34375-13.414063-13.34375zm-35.492187 50.828125c-18.191407 0-33.082031-15.921875-33.871094-35.828125h67.742187c-.789062 19.902344-15.679687 35.828125-33.871093 35.828125zm0 0"/><path d="m225.921875 356.492188c1.980469 0 3.910156-.800782 5.308594-2.199219 1.390625-1.390625 2.191406-3.332031 2.191406-5.300781 0-1.972657-.800781-3.910157-2.191406-5.300782-1.398438-1.402344-3.328125-2.199218-5.308594-2.199218-1.972656 0-3.910156.796874-5.300781 2.199218-1.398438 1.390625-2.199219 3.328125-2.199219 5.300782 0 1.96875.800781 3.910156 2.199219 5.300781 1.390625 1.398437 3.328125 2.199219 5.300781 2.199219zm0 0"/><path d="m220.621094 379.292969c1.398437 1.398437 3.328125 2.199219 5.300781 2.199219 1.96875 0 3.910156-.800782 5.308594-2.199219 1.390625-1.390625 2.191406-3.332031 2.191406-5.300781s-.800781-3.910157-2.191406-5.300782c-1.398438-1.398437-3.328125-2.199218-5.308594-2.199218-1.972656 0-3.910156.800781-5.300781 2.199218-1.398438 1.390625-2.199219 3.332032-2.199219 5.300782s.796875 3.910156 2.199219 5.300781zm0 0"/><path d="m290.40625 426.910156c3.121094-8.402344-1.171875-17.78125-9.574219-20.90625l-13.058593-4.855468c1.648437-5.582032.382812-11.875-3.882813-16.417969l-1.765625-1.882813c-3.191406-3.402344-7.695312-5.355468-12.363281-5.355468-4.320313 0-8.4375 1.628906-11.570313 4.566406l-17.824218 16.582031c-24.5-4.515625-43.101563-25.742187-43.101563-51.1875 0-4.140625-3.359375-7.5-7.5-7.5-4.144531 0-7.503906 3.359375-7.503906 7.5 0 29.15625 18.914062 54.003906 45.234375 63.230469-1.675782 2.484375-3.066406 5.167968-4.125 8.011718-3.214844 8.640626-3.082032 17.734376-.273438 25.898438-11.203125-3.027344-21.84375-7.941406-31.527344-14.65625-3.402343-2.359375-8.074218-1.511719-10.4375 1.894531-2.359374 3.402344-1.511718 8.078125 1.894532 10.4375 15.675781 10.867188 33.53125 17.648438 52.308594 19.984375 3.371093 2.792969 7.261718 5.082032 11.601562 6.699219l26.78125 9.960937c1.824219.675782 3.730469 1.019532 5.664062 1.019532h.003907c6.757812 0 12.882812-4.257813 15.238281-10.59375l.832031-2.238282c.796875-2.140624 1.128907-4.375 1.003907-6.585937 4.488281-1.574219 8.1875-5.082031 9.898437-9.683594l.835937-2.242187c1.757813-4.726563 1.167969-9.757813-1.179687-13.816406 1.535156-1.582032 2.757813-3.484376 3.554687-5.625zm-14.0625-5.226562-.832031 2.238281c-.210938.566406-.742188.820313-1.179688.820313-.144531 0-.289062-.027344-.4375-.082032l-19.351562-7.195312c-1.859375-.691406-3.925781-.617188-5.734375.210937s-3.214844 2.34375-3.90625 4.207031l-.535156 1.4375c-1.445313 3.882813.53125 8.203126 4.414062 9.644532l23.613281 8.78125c.402344.148437.605469.4375.707031.65625.097657.214844.183594.558594.035157.960937l-.835938 2.238281c-.210937.570313-.742187.824219-1.175781.824219-.148438 0-.292969-.027343-.441406-.082031l-23.609375-8.78125c-3.886719-1.441406-8.199219.53125-9.644531 4.414062l-.535157 1.4375c-.695312 1.863282-.621093 3.929688.207031 5.738282.828126 1.808594 2.34375 3.214844 4.207032 3.910156l19.347656 7.195312c.40625.148438.605469.4375.707031.652344.097657.21875.183594.558594.03125.964844l-.828125 2.238281c-.210937.566407-.746094.820313-1.179687.820313-.148438 0-.292969-.023438-.441407-.082032l-26.78125-9.957031c-12.714843-4.730469-19.324218-18.625-14.734374-30.96875 1.957031-5.257812 5.773437-9.652343 10.753906-12.382812.542968-.296875 1.050781-.664063 1.503906-1.085938l18.742188-17.433593c.464843-.4375.980468-.527344 1.332031-.527344.316406 0 .921875.078125 1.421875.613281l1.765625 1.882813c.734375.78125.695312 2.019531-.089844 2.753906l-1.753906 1.644531c-1.886719 1.769531-2.726563 4.378906-2.230469 6.914063.496094 2.535156 2.265625 4.636718 4.675781 5.5625.023438.007812.101563.035156.125.046874l21.929688 8.152344c.402343.152344.605469.441406.703125.65625s.183594.558594.035156.960938zm0 0"/></svg>